<?xml version="1.0" encoding="UTF-8"?>
<svg width="347.26" height="168.61" version="1.1" viewBox="0 0 91.879 44.611" xmlns="http://www.w3.org/2000/svg">
 <g transform="translate(-53.61 -104.27)">
  <rect x="53.61" y="104.27" width="91.879" height="44.611" ry="0" fill="#162d5c"/>
  <g fill="#fff" stroke-width=".30812" aria-label="Bunny ">
   <path d="m95.953 125.02q0.72715 0.13557 1.1955 0.72715t0.46834 1.3557q0 0.69017-0.34509 1.2201-0.33276 0.51764-0.97364 0.81343-0.64088 0.29579-1.5159 0.29579h-3.7097v-8.6026h3.5495q0.87505 0 1.5036 0.28346 0.64088 0.28347 0.96132 0.78878 0.33276 0.5053 0.33276 1.1462 0 0.7518-0.40671 1.2571-0.39439 0.50531-1.0599 0.71483zm-3.1551-0.61623h1.5775q0.61623 0 0.94899-0.28347 0.33276-0.28346 0.33276-0.81342t-0.34509-0.82575q-0.33276-0.29579-0.93667-0.29579h-1.5775zm1.7378 3.6604q0.62855 0 0.97364-0.29579 0.35741-0.30812 0.35741-0.87505 0-0.55461-0.36974-0.87505t-0.99829-0.32044h-1.7008v2.3663z"/>
   <path d="m105.44 122.61v6.8278h-1.7378v-0.86273q-0.33276 0.44369-0.87504 0.70251-0.52996 0.24649-1.1585 0.24649-0.80109 0-1.4173-0.33277-0.61624-0.34508-0.97365-0.99829-0.34509-0.66553-0.34509-1.5776v-4.0055h1.7254v3.759q0 0.81342 0.40671 1.2571 0.40671 0.43136 1.1092 0.43136 0.71483 0 1.1215-0.43136 0.40671-0.44369 0.40671-1.2571v-3.759z"/>
   <path d="m110.93 122.51q1.2201 0 1.9719 0.77645 0.7518 0.76413 0.7518 2.1445v4.0055h-1.7254v-3.7713q0-0.81343-0.40671-1.2448-0.40671-0.44368-1.1092-0.44368-0.71483 0-1.1339 0.44368-0.40671 0.43136-0.40671 1.2448v3.7713h-1.7254v-6.8278h1.7254v0.8504q0.34509-0.44369 0.87505-0.69018 0.54228-0.25882 1.1832-0.25882z"/>
   <path d="m119.07 122.51q1.2201 0 1.9719 0.77645 0.7518 0.76413 0.7518 2.1445v4.0055h-1.7254v-3.7713q0-0.81343-0.40671-1.2448-0.40671-0.44368-1.1092-0.44368-0.71483 0-1.1339 0.44368-0.40672 0.43136-0.40672 1.2448v3.7713h-1.7254v-6.8278h1.7254v0.8504q0.34509-0.44369 0.87505-0.69018 0.54228-0.25882 1.1832-0.25882z"/>
   <path d="m124.58 122.61 1.7624 4.7696 1.7871-4.7696h1.8364l-4.2273 10.057h-1.8364l1.479-3.4016-2.7361-6.6553z"/>
  </g>
  <g fill="#91a6d2" stroke-width=".26915" aria-label="REST Proxy ">
   <path d="m93.359 134.6-0.88425-1.5618h-0.37896v1.5618h-0.80386v-4.0078h1.5044q0.46509 0 0.79238 0.16651 0.32729 0.16078 0.48806 0.44213 0.16652 0.27561 0.16652 0.62012 0 0.39619-0.22968 0.71773-0.22968 0.31581-0.68328 0.43638l0.95889 1.625zm-1.2632-2.1589h0.6718q0.32729 0 0.48806-0.16077t0.16077-0.44213q0-0.28135-0.16077-0.43638-0.16077-0.16077-0.48806-0.16077h-0.6718z"/>
   <path d="m95.776 131.22v1.0393h1.3493v0.62012h-1.3493v1.0852h1.5216v0.63734h-2.3255v-4.0136h2.3255v0.6316z"/>
   <path d="m99.411 134.64q-0.41916 0-0.75793-0.14355-0.33303-0.14355-0.52825-0.41341-0.19522-0.26987-0.20097-0.63735h0.86128q0.01723 0.25264 0.17226 0.40193 0.16077 0.14929 0.43638 0.14929 0.28135 0 0.44212-0.13781 0.16077-0.1378 0.16077-0.36748 0-0.17799-0.1091-0.29283t-0.27561-0.178q-0.16077-0.0689-0.44787-0.14929-0.39045-0.11484-0.63735-0.22393-0.24116-0.11484-0.41916-0.33877-0.17226-0.22968-0.17226-0.60864 0-0.356 0.178-0.62012 0.178-0.26413 0.49954-0.40193 0.32154-0.14355 0.73496-0.14355 0.62012 0 1.0048 0.30432 0.39044 0.29858 0.43064 0.83831h-0.88425q-0.01148-0.22393-0.178-0.35599-0.16077-0.13781-0.43064-0.13781-0.23542 0-0.37896 0.12632-0.1378 0.12058-0.1378 0.36174 0 0.16077 0.10335 0.26987 0.1091 0.10335 0.26413 0.17225 0.16077 0.0632 0.44787 0.14929 0.39045 0.11484 0.63734 0.22968 0.2469 0.11484 0.4249 0.34451t0.178 0.6029q0 0.32154-0.16651 0.59715-0.16652 0.27561-0.48806 0.44212-0.32155 0.16078-0.76367 0.16078z"/>
   <path d="m104.25 130.59v0.6316h-1.068v3.3762h-0.80386v-3.3762h-1.068v-0.6316z"/>
   <path d="m109.3 131.83q0 0.32155-0.15503 0.6029-0.14929 0.28135-0.47658 0.45361-0.32154 0.17225-0.81534 0.17225h-0.6718v1.5388h-0.80386v-4.0078h1.4757q0.46509 0 0.79238 0.16077 0.32728 0.16077 0.48806 0.44213 0.16651 0.28135 0.16651 0.63734zm-1.4814 0.59716q0.32728 0 0.48806-0.16078 0.16651-0.16077 0.16651-0.43638 0-0.28709-0.16077-0.44212-0.16077-0.16077-0.4938-0.16077h-0.63735v1.2z"/>
   <path d="m110.67 131.98q0.15503-0.28709 0.40193-0.44786 0.25264-0.16078 0.57418-0.16078v0.84406h-0.21245q-0.37896 0-0.57418 0.178-0.18948 0.17799-0.18948 0.62012v1.5848h-0.80387v-3.181h0.80387z"/>
   <path d="m113.6 134.65q-0.45935 0-0.82683-0.20096-0.36748-0.20671-0.57993-0.57993-0.20671-0.37323-0.20671-0.86128 0-0.48806 0.21245-0.86128 0.21819-0.37323 0.59141-0.57419 0.37322-0.20671 0.83257-0.20671t0.83257 0.20671q0.37323 0.20096 0.58567 0.57419 0.2182 0.37322 0.2182 0.86128 0 0.48805-0.22394 0.86128-0.21819 0.37322-0.59715 0.57993-0.37322 0.20096-0.83831 0.20096zm0-0.68902q0.21819 0 0.40767-0.1091 0.19522-0.10909 0.31006-0.32154 0.11484-0.21819 0.11484-0.52251t-0.11484-0.51677q-0.11484-0.21819-0.30432-0.32729-0.18374-0.10909-0.40193-0.10909-0.33877 0-0.57419 0.25264-0.23541 0.2469-0.23541 0.70051 0 0.4536 0.22967 0.70625 0.22967 0.2469 0.56845 0.2469z"/>
   <path d="m117.61 134.6-0.65457-0.9876-0.57993 0.9876h-0.86128l1.0393-1.5962-1.0508-1.5848h0.90721l0.64883 0.98186 0.58567-0.98186h0.86128l-1.045 1.5848 1.0565 1.5962z"/>
   <path d="m119.48 131.42 0.82108 2.2221 0.83258-2.2221h0.85553l-1.9695 4.6854h-0.85554l0.68903-1.5848-1.2747-3.1006z"/>
  </g>
  <path d="m74.244 114.52 0.10742 1.5137s0.15282 2.1473 0.50391 4.7188c0.35108 2.5715 0.86912 5.5404 1.7402 7.3926 0.88489 1.8814 2.8121 3.7676 4.5234 5.2617 1.7114 1.4941 3.2227 2.5625 3.2227 2.5625l0.90625 0.64062 0.19141-1.0918s0.32179-1.8149 0.31641-4.1406c-0.0054-2.3258-0.30861-5.1964-1.6953-7.4121-2.6647-4.258-8.5918-8.5469-8.5918-8.5469zm1.6895 3.0976c1.5791 1.2406 5.0323 4.0506 6.9355 7.0918 1.137 1.8168 1.4754 4.4764 1.4805 6.6719 0.0035 1.4905-0.11096 1.9863-0.19922 2.6426-0.54816-0.4069-0.98816-0.69859-2.1074-1.6758-1.6526-1.4428-3.484-3.33-4.1758-4.8008-0.70553-1.5001-1.2749-4.463-1.6191-6.9844-0.21904-1.6044-0.24151-2.1126-0.31445-2.9453z" color="#000000" fill="#abc0eb" style="-inkscape-stroke:none"/>
  <path d="m66.158 110.77 0.19531 1.9707s0.80858 8.7362 3.6426 14.318c1.4698 2.8952 4.3186 5.2437 6.7871 6.9277 2.4685 1.684 4.5996 2.6914 4.5996 2.6914l1.334 0.63086-0.11914-1.4688s-0.17551-2.2074-0.67969-4.9102-1.2988-5.9035-2.7246-8.0762c-1.4061-2.1426-4.2397-4.7848-6.7578-6.9785s-4.7109-3.8926-4.7109-3.8926zm2.2305 3.9746c0.84691 0.67663 1.362 1.0557 2.9258 2.418 2.4771 2.158 5.283 4.8469 6.4512 6.627 1.1484 1.75 1.9879 4.844 2.4746 7.4531 0.31315 1.6788 0.33363 2.2043 0.42383 3.0449-0.77017-0.40058-1.3474-0.63818-2.9199-1.7109-2.3531-1.6053-4.9996-3.8723-6.2266-6.2891-2.0003-3.9399-2.7913-9.0404-3.1289-11.543z" color="#000000" fill="#fff" style="-inkscape-stroke:none"/>
 </g>
</svg>
