<?xml version="1.0" encoding="UTF-8"?>
<svg width="28.54mm" height="28.54mm" version="1.1" viewBox="0 0 28.54 28.54" xmlns="http://www.w3.org/2000/svg">
 <g transform="translate(-102.09 -129.78)">
  <path d="m114.24 133.81 0.115 1.6205s0.16152 2.2988 0.53737 5.0517c0.37585 2.7529 0.93254 5.9314 1.8651 7.9142 0.94733 2.0141 3.0084 4.0334 4.8405 5.633 1.8322 1.5996 3.4521 2.7433 3.4521 2.7433l0.96811 0.68583 0.207-1.1688s0.34241-1.9429 0.33664-4.4328c-5e-3 -2.4899-0.3283-5.563-1.8128-7.9351-2.8528-4.5584-9.2001-9.15-9.2001-9.15zm1.8066 3.3162c1.6894 1.3271 5.3888 4.3354 7.427 7.5922 1.2173 1.945 1.5795 4.7922 1.5849 7.1426 3e-3 1.5957-0.12089 2.1265-0.21537 2.829-0.58692-0.43569-1.056-0.74809-2.254-1.794-1.7692-1.5446-3.7298-3.565-4.4704-5.1395-0.75531-1.6059-1.3669-4.7779-1.7355-7.4772-0.23449-1.7176-0.25855-2.2616-0.33664-3.1531z" color="#000000" fill="#abc0eb" stroke-width="1.0706" style="-inkscape-stroke:none"/>
  <path d="m105.58 129.79 0.20909 2.1118s0.86563 9.3506 3.8996 15.327c1.5736 3.0994 4.6233 5.6137 7.266 7.4166 2.6427 1.8028 4.9262 2.8813 4.9262 2.8813l1.426 0.67538-0.12546-1.5724s-0.18999-2.3631-0.72974-5.2566c-0.53974-2.8935-1.3904-6.32-2.9169-8.646-1.5053-2.2937-4.5388-5.1224-7.2346-7.4709-2.6958-2.3485-5.0434-4.1672-5.0434-4.1672zm2.3878 4.2551c0.90661 0.72433 1.46 1.13 3.1343 2.5886 2.6519 2.3102 5.6558 5.191 6.9064 7.0966 1.2294 1.8734 2.1261 5.1837 2.6471 7.9769 0.33525 1.7972 0.35716 2.3599 0.45374 3.2598-0.82457-0.42888-1.4427-0.68122-3.126-1.8296-2.5191-1.7185-5.3524-4.1476-6.6659-6.7349-2.1414-4.2179-2.9883-9.6783-3.3497-12.357z" color="#000000" fill="#fff" stroke-width="1.0706" style="-inkscape-stroke:none"/>
  <rect x="101.08" y="128.77" width="30.554" height="30.554" opacity="0" stroke-width="0"/>
 </g>
</svg>
