<?xml version="1.0" encoding="UTF-8"?>
<svg width="347.26" height="168.61" version="1.1" viewBox="0 0 91.879 44.611" xmlns="http://www.w3.org/2000/svg">
 <g transform="translate(-53.61 -104.27)">
  <g>
   <rect x="53.61" y="104.27" width="91.879" height="44.611" ry="0" fill="#303f9f"/>
   <text x="89.010384" y="129.43404" fill="#ffffff" font-size="12.325px" letter-spacing="0px" stroke-width=".30812" word-spacing="0px" style="line-height:1.25" xml:space="preserve"><tspan x="89.010384" y="129.43404" dx="0" dy="0" font-family="Poppins" font-weight="600">Bunny</tspan><tspan x="89.010384" y="145.38322" font-family="'Roboto Condensed'" font-weight="bold"/></text>
   <text x="89.683571" y="134.5984" fill="#a2b4d9" font-size="5.7419px" letter-spacing="0px" stroke-width=".26915" word-spacing="0px" style="line-height:1.25" xml:space="preserve"><tspan x="89.683571" y="134.5984" font-family="Poppins" font-weight="600" stroke-width=".26915">REST Proxy</tspan><tspan x="89.683571" y="142.02892" font-family="'Roboto Condensed'" font-weight="bold"/></text>
  </g>
  <path d="m74.244 114.52 0.10742 1.5137s0.15282 2.1473 0.50391 4.7188c0.35108 2.5715 0.86912 5.5404 1.7402 7.3926 0.88489 1.8814 2.8121 3.7676 4.5234 5.2617 1.7114 1.4941 3.2227 2.5625 3.2227 2.5625l0.90625 0.64062 0.19141-1.0918s0.32179-1.8149 0.31641-4.1406c-0.0054-2.3258-0.30861-5.1964-1.6953-7.4121-2.6647-4.258-8.5918-8.5469-8.5918-8.5469zm1.6895 3.0976c1.5791 1.2406 5.0323 4.0506 6.9355 7.0918 1.137 1.8168 1.4754 4.4764 1.4805 6.6719 0.0035 1.4905-0.11096 1.9863-0.19922 2.6426-0.54816-0.4069-0.98816-0.69859-2.1074-1.6758-1.6526-1.4428-3.484-3.33-4.1758-4.8008-0.70553-1.5001-1.2749-4.463-1.6191-6.9844-0.21904-1.6044-0.24151-2.1126-0.31445-2.9453z" color="#000000" fill="#a2b4d9" style="-inkscape-stroke:none"/>
  <path d="m66.158 110.77 0.19531 1.9707s0.80858 8.7362 3.6426 14.318c1.4698 2.8952 4.3186 5.2437 6.7871 6.9277 2.4685 1.684 4.5996 2.6914 4.5996 2.6914l1.334 0.63086-0.11914-1.4688s-0.17551-2.2074-0.67969-4.9102-1.2988-5.9035-2.7246-8.0762c-1.4061-2.1426-4.2397-4.7848-6.7578-6.9785s-4.7109-3.8926-4.7109-3.8926zm2.2305 3.9746c0.84691 0.67663 1.362 1.0557 2.9258 2.418 2.4771 2.158 5.283 4.8469 6.4512 6.627 1.1484 1.75 1.9879 4.844 2.4746 7.4531 0.31315 1.6788 0.33363 2.2043 0.42383 3.0449-0.77017-0.40058-1.3474-0.63818-2.9199-1.7109-2.3531-1.6053-4.9996-3.8723-6.2266-6.2891-2.0003-3.9399-2.7913-9.0404-3.1289-11.543z" color="#000000" fill="#fff" style="-inkscape-stroke:none"/>
  <rect x="61.957" y="109.81" width="28.54" height="28.54" opacity="0" stroke-width="0"/>
 </g>
</svg>
