<?xml version="1.0" encoding="UTF-8"?>
<svg width="898.84" height="622.93" version="1.1" viewBox="0 0 237.82 164.82" xmlns="http://www.w3.org/2000/svg">
 <g transform="translate(-61.386 -108.41)">
  <rect x="61.386" y="108.41" width="237.82" height="164.82" fill="#fff" style="paint-order:markers fill stroke"/>
  <path d="m93.509 154.69v19.706" fill="none" stroke="#000" stroke-dasharray="1.59186, 0.397969" stroke-width=".39797"/>
  <path d="m116.27 188.96h32.769" fill="none" stroke="#000" stroke-dasharray="2.05276, 0.513193" stroke-width=".51319"/>
  <g transform="matrix(.51058 0 0 .51058 41.682 123.91)">
   <g>
    <rect x="53.61" y="104.27" width="91.879" height="44.611" ry="0" fill="#222d72" stroke="#222d72" stroke-width="1.2704"/>
    <path d="m68.438 116.73 0.10011 1.4106s0.14242 2.0011 0.4696 4.3975c0.32718 2.3964 0.80995 5.1632 1.6218 6.8893 0.82464 1.7533 2.6206 3.5111 4.2155 4.9035 1.5949 1.3924 3.0032 2.388 3.0032 2.388l0.84455 0.597 0.17837-1.0175s0.29988-1.6913 0.29486-3.8587c-5e-3 -2.1674-0.2876-4.8426-1.5799-6.9075-2.4833-3.9681-8.0068-7.965-8.0068-7.965zm1.5744 2.8867c1.4715 1.1561 4.6896 3.7748 6.4634 6.609 1.0596 1.6931 1.3749 4.1716 1.3797 6.2176 0.0032 1.389-0.10341 1.8511-0.18566 2.4626-0.51084-0.37919-0.92088-0.65102-1.9639-1.5617-1.5401-1.3446-3.2468-3.1033-3.8915-4.4739-0.65749-1.3979-1.1881-4.1591-1.5089-6.5088-0.20413-1.4951-0.22507-1.9687-0.29304-2.7448z" color="#000000" fill="#abc0eb" stroke-width=".93192" style="-inkscape-stroke:none"/>
    <path d="m60.902 113.24 0.18202 1.8365s0.75353 8.1414 3.3946 13.344c1.3698 2.698 4.0246 4.8867 6.325 6.4561 2.3004 1.5694 4.2865 2.5082 4.2865 2.5082l1.2432 0.58791-0.11103-1.3688s-0.16356-2.0571-0.63341-4.5759c-0.46985-2.5188-1.2104-5.5015-2.5391-7.5263-1.3103-1.9967-3.9511-4.4591-6.2977-6.5034s-4.3902-3.6276-4.3902-3.6276zm2.0786 3.704c0.78925 0.63056 1.2693 0.9838 2.7266 2.2534 2.3085 2.011 4.9233 4.5169 6.012 6.1758 1.0702 1.6308 1.8526 4.5142 2.3061 6.9457 0.29183 1.5645 0.31091 2.0542 0.39497 2.8376-0.71773-0.37331-1.2557-0.59473-2.7211-1.5944-2.1929-1.496-4.6592-3.6087-5.8026-5.8609-1.8641-3.6717-2.6013-8.4249-2.9159-10.757z" color="#000000" fill="#fff" stroke-width=".93192" style="-inkscape-stroke:none"/>
   </g>
   <rect x="66.804" y="111.73" width="26.597" height="26.597" opacity="0" stroke-width="0"/>
  </g>
  <text transform="matrix(.26458 0 0 .26458 53.61 104.27)" font-family="Montserrat" font-size="40px" font-weight="600" letter-spacing="0px" word-spacing="0px" style="line-height:1.25;shape-inside:url(#rect6331);white-space:pre" xml:space="preserve"/>
  <text transform="matrix(.15327 0 0 .15327 28.721 115.76)" fill="#f4f5fc" font-family="Montserrat" font-size="36.828px" font-weight="600" letter-spacing="0px" word-spacing="0px" style="line-height:1.25;shape-inside:url(#rect12563);white-space:pre" xml:space="preserve"/>
  <g transform="matrix(.51058 0 0 .51058 219.32 107.49)">
   <g>
    <rect x="53.61" y="104.27" width="91.879" height="44.611" ry="0" fill="#222d72" stroke="#222d72" stroke-width="1.2704"/>
    <path d="m68.438 116.73 0.10011 1.4106s0.14242 2.0011 0.4696 4.3975c0.32718 2.3964 0.80995 5.1632 1.6218 6.8893 0.82464 1.7533 2.6206 3.5111 4.2155 4.9035 1.5949 1.3924 3.0032 2.388 3.0032 2.388l0.84455 0.597 0.17837-1.0175s0.29988-1.6913 0.29486-3.8587c-5e-3 -2.1674-0.2876-4.8426-1.5799-6.9075-2.4833-3.9681-8.0068-7.965-8.0068-7.965zm1.5744 2.8867c1.4715 1.1561 4.6896 3.7748 6.4634 6.609 1.0596 1.6931 1.3749 4.1716 1.3797 6.2176 0.0032 1.389-0.10341 1.8511-0.18566 2.4626-0.51084-0.37919-0.92088-0.65102-1.9639-1.5617-1.5401-1.3446-3.2468-3.1033-3.8915-4.4739-0.65749-1.3979-1.1881-4.1591-1.5089-6.5088-0.20413-1.4951-0.22507-1.9687-0.29304-2.7448z" color="#000000" fill="#abc0eb" stroke-width=".93192" style="-inkscape-stroke:none"/>
    <path d="m60.902 113.24 0.18202 1.8365s0.75353 8.1414 3.3946 13.344c1.3698 2.698 4.0246 4.8867 6.325 6.4561 2.3004 1.5694 4.2865 2.5082 4.2865 2.5082l1.2432 0.58791-0.11103-1.3688s-0.16356-2.0571-0.63341-4.5759c-0.46985-2.5188-1.2104-5.5015-2.5391-7.5263-1.3103-1.9967-3.9511-4.4591-6.2977-6.5034s-4.3902-3.6276-4.3902-3.6276zm2.0786 3.704c0.78925 0.63056 1.2693 0.9838 2.7266 2.2534 2.3085 2.011 4.9233 4.5169 6.012 6.1758 1.0702 1.6308 1.8526 4.5142 2.3061 6.9457 0.29183 1.5645 0.31091 2.0542 0.39497 2.8376-0.71773-0.37331-1.2557-0.59473-2.7211-1.5944-2.1929-1.496-4.6592-3.6087-5.8026-5.8609-1.8641-3.6717-2.6013-8.4249-2.9159-10.757z" color="#000000" fill="#fff" stroke-width=".93192" style="-inkscape-stroke:none"/>
   </g>
   <rect x="66.804" y="111.73" width="26.597" height="26.597" opacity="0" stroke-width="0"/>
  </g>
  <text transform="matrix(.15327 0 0 .15327 206.48 99.866)" fill="#f4f5fc" font-family="Montserrat" font-size="36.828px" font-weight="600" letter-spacing="0px" word-spacing="0px" style="line-height:1.25;shape-inside:url(#rect12563-8);white-space:pre" xml:space="preserve"/>
  <g transform="matrix(.51058 0 0 .51058 219.32 140.87)">
   <g>
    <rect x="53.61" y="104.27" width="91.879" height="44.611" ry="0" fill="#222d72" stroke="#222d72" stroke-width="1.2704"/>
    <path d="m68.438 116.73 0.10011 1.4106s0.14242 2.0011 0.4696 4.3975c0.32718 2.3964 0.80995 5.1632 1.6218 6.8893 0.82464 1.7533 2.6206 3.5111 4.2155 4.9035 1.5949 1.3924 3.0032 2.388 3.0032 2.388l0.84455 0.597 0.17837-1.0175s0.29988-1.6913 0.29486-3.8587c-5e-3 -2.1674-0.2876-4.8426-1.5799-6.9075-2.4833-3.9681-8.0068-7.965-8.0068-7.965zm1.5744 2.8867c1.4715 1.1561 4.6896 3.7748 6.4634 6.609 1.0596 1.6931 1.3749 4.1716 1.3797 6.2176 0.0032 1.389-0.10341 1.8511-0.18566 2.4626-0.51084-0.37919-0.92088-0.65102-1.9639-1.5617-1.5401-1.3446-3.2468-3.1033-3.8915-4.4739-0.65749-1.3979-1.1881-4.1591-1.5089-6.5088-0.20413-1.4951-0.22507-1.9687-0.29304-2.7448z" color="#000000" fill="#abc0eb" stroke-width=".93192" style="-inkscape-stroke:none"/>
    <path d="m60.902 113.24 0.18202 1.8365s0.75353 8.1414 3.3946 13.344c1.3698 2.698 4.0246 4.8867 6.325 6.4561 2.3004 1.5694 4.2865 2.5082 4.2865 2.5082l1.2432 0.58791-0.11103-1.3688s-0.16356-2.0571-0.63341-4.5759c-0.46985-2.5188-1.2104-5.5015-2.5391-7.5263-1.3103-1.9967-3.9511-4.4591-6.2977-6.5034s-4.3902-3.6276-4.3902-3.6276zm2.0786 3.704c0.78925 0.63056 1.2693 0.9838 2.7266 2.2534 2.3085 2.011 4.9233 4.5169 6.012 6.1758 1.0702 1.6308 1.8526 4.5142 2.3061 6.9457 0.29183 1.5645 0.31091 2.0542 0.39497 2.8376-0.71773-0.37331-1.2557-0.59473-2.7211-1.5944-2.1929-1.496-4.6592-3.6087-5.8026-5.8609-1.8641-3.6717-2.6013-8.4249-2.9159-10.757z" color="#000000" fill="#fff" stroke-width=".93192" style="-inkscape-stroke:none"/>
   </g>
   <rect x="66.804" y="111.73" width="26.597" height="26.597" opacity="0" stroke-width="0"/>
  </g>
  <text transform="matrix(.15327 0 0 .15327 206.48 132.91)" fill="#f4f5fc" font-family="Montserrat" font-size="36.828px" font-weight="600" letter-spacing="0px" word-spacing="0px" style="line-height:1.25;shape-inside:url(#rect12563-8-2);white-space:pre" xml:space="preserve"/>
  <g transform="matrix(.51058 0 0 .51058 41.682 78.36)">
   <rect x="53.61" y="104.27" width="91.879" height="44.611" ry="0" fill="#fff" stroke="#000" stroke-width="1.2704"/>
   <rect x="66.804" y="111.73" width="26.597" height="26.597" opacity="0" stroke-width="0"/>
  </g>
  <text transform="matrix(.15327 0 0 .15327 24.275 69.553)" fill="#222d72" font-family="Montserrat" font-size="36.828px" font-weight="600" letter-spacing="0px" word-spacing="0px" style="line-height:1.25;shape-inside:url(#rect12563-8-2-4-3-8-5);white-space:pre" xml:space="preserve"/>
  <g transform="matrix(.51058 0 0 .51058 219.32 61.821)">
   <rect x="53.61" y="104.27" width="91.879" height="44.611" ry="0" fill="#fff" stroke="#000" stroke-width="1.2704"/>
   <rect x="66.804" y="111.73" width="26.597" height="26.597" opacity="0" stroke-width="0"/>
  </g>
  <text transform="matrix(.15327 0 0 .15327 201.92 53.014)" fill="#222d72" font-family="Montserrat" font-size="36.828px" font-weight="600" letter-spacing="0px" word-spacing="0px" style="line-height:1.25;shape-inside:url(#rect12563-8-2-4-3-8-5-1);white-space:pre" xml:space="preserve"/>
  <g transform="matrix(.51058 0 0 .51058 219.32 186.5)">
   <rect x="53.61" y="104.27" width="91.879" height="44.611" ry="0" fill="#fff" stroke="#000" stroke-width="1.2704"/>
   <rect x="66.804" y="111.73" width="26.597" height="26.597" opacity="0" stroke-width="0"/>
  </g>
  <text transform="matrix(.15327 0 0 .15327 201.92 177.69)" fill="#222d72" font-family="Montserrat" font-size="36.828px" font-weight="600" letter-spacing="0px" word-spacing="0px" style="line-height:1.25;shape-inside:url(#rect12563-8-2-4-3-8-5-1-1);white-space:pre" xml:space="preserve"/>
  <text x="94.96096" y="166.37991" font-family="Montserrat" font-size="4.123px" font-weight="600" letter-spacing="0px" stroke-width=".10308" word-spacing="0px" style="line-height:1.25" xml:space="preserve"><tspan x="94.96096" y="166.37991" font-family="Poppins" font-weight="500" stroke-width=".10308">HTTP POST</tspan></text>
  <g transform="matrix(.51058 0 0 .51058 125.48 123.91)">
   <rect x="53.61" y="104.27" width="100.3" height="44.611" ry="0" fill="#fff" stroke="#000" stroke-width="1.2704"/>
   <rect x="66.804" y="111.73" width="26.597" height="26.597" opacity="0" stroke-width="0"/>
  </g>
  <text transform="matrix(.15327 0 0 .15327 109.53 122.47)" fill="#222d72" font-family="Montserrat" font-size="36.828px" font-weight="600" letter-spacing="0px" word-spacing="0px" style="line-height:1.25;shape-inside:url(#rect12563-8-2-4-0);white-space:pre" xml:space="preserve"/>
  <path transform="matrix(.26458 0 0 -.26458 17.48 268.73)" d="m294.27 360h-13.823l6.9113-11.971z" fill="#222d72" style="paint-order:markers fill stroke"/>
  <path d="m270.36 138.48v19.706" fill="none" stroke="#000" stroke-dasharray="1.59186, 0.397969" stroke-width=".39797"/>
  <text x="272.02768" y="147.69656" font-family="Poppins" font-size="4.123px" font-weight="500" letter-spacing="0px" stroke-width=".10308" word-spacing="0px" style="line-height:1.25" xml:space="preserve"><tspan x="272.02768" y="147.69656">HTTP GET</tspan><tspan x="272.02768" y="153.03212">&lt;PULL&gt;</tspan></text>
  <text x="272.02768" y="225.3636" font-family="Poppins" font-size="4.123px" font-weight="500" letter-spacing="0px" stroke-width=".10308" word-spacing="0px" style="line-height:1.25" xml:space="preserve"><tspan x="272.02768" y="225.3636">HTTP POST</tspan><tspan x="272.02768" y="230.69916">&lt;PUSH&gt;</tspan></text>
  <path transform="matrix(.26458 0 0 -.26458 194.33 252.52)" d="m294.27 360h-13.823l6.9113-11.971z" fill="#222d72" style="paint-order:markers fill stroke"/>
  <path d="m270.36 217.21v19.706" fill="none" stroke="#000" stroke-dasharray="1.59186, 0.397969" stroke-width=".39797"/>
  <path transform="matrix(.26458 0 0 -.26458 194.33 331.26)" d="m294.27 360h-13.823l6.9113-11.971z" fill="#222d72" style="paint-order:markers fill stroke"/>
  <text x="117.58289" y="187.65953" font-family="Montserrat" font-size="4.123px" font-weight="600" letter-spacing="0px" stroke-width=".10308" word-spacing="0px" style="line-height:1.25" xml:space="preserve"><tspan x="117.58289" y="187.65953" font-family="Poppins" font-weight="500" stroke-width=".10308">AMQP PUBLISH</tspan></text>
  <path transform="matrix(0 .26458 -.26458 0 244.62 112.93)" d="m294.27 360h-13.823l6.9113-11.971z" fill="#222d72" style="paint-order:markers fill stroke"/>
  <text x="213.76952" y="178.91774" font-family="Montserrat" font-size="4.123px" font-weight="600" letter-spacing="0px" stroke-width=".10308" word-spacing="0px" style="line-height:1.25" xml:space="preserve"><tspan x="213.76952" y="178.91774" font-family="Poppins" font-weight="500" stroke-width=".10308">AMQP GET</tspan></text>
  <path transform="matrix(0 .26458 .26458 0 112.33 104.19)" d="m294.27 360h-13.823l6.9113-11.971z" fill="#222d72" style="paint-order:markers fill stroke"/>
  <path d="m204.89 197.73h38.01" fill="none" stroke="#000" stroke-dasharray="2.21082, 0.552711" stroke-width=".55271"/>
  <path d="m245.87 180.22h-38.01" fill="none" stroke="#000" stroke-dasharray="2.21082, 0.552711" stroke-width=".55271"/>
  <text x="207.98264" y="196.42592" font-family="Montserrat" font-size="4.123px" font-weight="600" letter-spacing="0px" stroke-width=".10308" word-spacing="0px" style="line-height:1.25" xml:space="preserve"><tspan x="207.98264" y="196.42592" font-family="Poppins" font-weight="500" stroke-width=".10308">AMQP CONSUME</tspan></text>
  <g fill="#222d72">
   <path transform="matrix(0 .26458 -.26458 0 338.44 121.7)" d="m294.27 360h-13.823l6.9113-11.971z" style="paint-order:markers fill stroke"/>
   <rect x="158.45" y="186.87" width="4.1915" height="4.1915" style="paint-order:markers fill stroke"/>
   <rect x="164.45" y="186.87" width="4.1915" height="4.1915" style="paint-order:markers fill stroke"/>
   <rect x="170.45" y="186.87" width="4.1915" height="4.1915" style="paint-order:markers fill stroke"/>
   <rect x="176.45" y="186.87" width="4.1915" height="4.1915" style="paint-order:markers fill stroke"/>
   <rect x="182.45" y="186.87" width="4.1915" height="4.1915" style="paint-order:markers fill stroke"/>
   <rect x="188.45" y="186.87" width="4.1915" height="4.1915" opacity=".49153" style="paint-order:markers fill stroke"/>
   <rect x="194.45" y="186.87" width="4.1915" height="4.1915" opacity=".49153" style="paint-order:markers fill stroke"/>
  </g>
  <g transform="matrix(.59762 0 0 .59762 26.767 187.87)">
   <g>
    <g transform="matrix(.77007 0 0 .77007 22.453 28.748)" fill="#222d72" stroke-width=".37288" aria-label="Bunny ">
     <path d="m96.541 126.04q0.87998 0.16406 1.4468 0.87998t0.56677 1.6406q0 0.83524-0.41762 1.4766-0.4027 0.62643-1.1783 0.98439t-1.8345 0.35796h-4.4894v-10.411h4.2955q1.059 0 1.8196 0.34304 0.77558 0.34305 1.1634 0.95456 0.4027 0.61152 0.4027 1.3871 0 0.90981-0.4922 1.5213-0.47728 0.61151-1.2827 0.86507zm-3.8182-0.74575h1.9091q0.74575 0 1.1485-0.34305 0.4027-0.34304 0.4027-0.98439 0-0.64134-0.41762-0.9993-0.4027-0.35796-1.1335-0.35796h-1.9091zm2.103 4.4298q0.76066 0 1.1783-0.35796 0.43254-0.37287 0.43254-1.059 0-0.67118-0.44745-1.059t-1.2081-0.38779h-2.0583v2.8637z"/>
     <path d="m108.03 123.12v8.2629h-2.103v-1.044q-0.4027 0.53694-1.059 0.85015-0.64135 0.2983-1.402 0.2983-0.96948 0-1.7152-0.4027-0.74575-0.41762-1.1783-1.2081-0.41762-0.80541-0.41762-1.9091v-4.8474h2.0881v4.5491q0 0.98439 0.49219 1.5213 0.4922 0.52203 1.3424 0.52203 0.86507 0 1.3573-0.52203 0.49219-0.53694 0.49219-1.5213v-4.5491z"/>
     <path d="m114.66 123q1.4766 0 2.3864 0.93964 0.90982 0.92473 0.90982 2.5952v4.8474h-2.0881v-4.564q0-0.98439-0.4922-1.5064-0.49219-0.53694-1.3424-0.53694-0.86507 0-1.3722 0.53694-0.49219 0.52203-0.49219 1.5064v4.564h-2.0881v-8.2629h2.0881v1.0291q0.41762-0.53694 1.059-0.83524 0.65626-0.31321 1.4318-0.31321z"/>
     <path d="m124.52 123q1.4766 0 2.3864 0.93964 0.90981 0.92473 0.90981 2.5952v4.8474h-2.0881v-4.564q0-0.98439-0.49219-1.5064-0.4922-0.53694-1.3424-0.53694-0.86507 0-1.3722 0.53694-0.4922 0.52203-0.4922 1.5064v4.564h-2.0881v-8.2629h2.0881v1.0291q0.41762-0.53694 1.059-0.83524 0.65626-0.31321 1.4318-0.31321z"/>
     <path d="m131.19 123.12 2.1328 5.7721 2.1627-5.7721h2.2223l-5.1158 12.171h-2.2223l1.7898-4.1165-3.3111-8.0541z"/>
    </g>
    <g transform="matrix(.77007 0 0 .77007 22.453 28.748)" fill="#5475b9" stroke-width=".32572" aria-label="REST Proxy ">
     <path d="m93.401 137.63-1.0701-1.89h-0.45862v1.89h-0.97282v-4.8502h1.8206q0.56284 0 0.95892 0.20151 0.39608 0.19456 0.59064 0.53505 0.20151 0.33354 0.20151 0.75046 0 0.47946-0.27795 0.86858-0.27795 0.38218-0.8269 0.52811l1.1604 1.9665zm-1.5287-2.6127h0.813q0.39608 0 0.59064-0.19457 0.19456-0.19456 0.19456-0.53505 0-0.34048-0.19456-0.5281-0.19456-0.19456-0.59064-0.19456h-0.813z"/>
     <path d="m96.327 133.54v1.2577h1.6329v0.75046h-1.6329v1.3133h1.8414v0.77131h-2.8142v-4.8571h2.8142v0.76435z"/>
     <path d="m100.73 137.68q-0.50725 0-0.91723-0.17372-0.40302-0.17372-0.63928-0.5003-0.23626-0.32659-0.2432-0.77131h1.0423q0.02085 0.30574 0.20846 0.48641 0.19457 0.18066 0.52811 0.18066 0.34048 0 0.53505-0.16676 0.19456-0.16677 0.19456-0.44472 0-0.21541-0.13203-0.35438-0.13202-0.13898-0.33353-0.21541-0.19457-0.0834-0.542-0.18067-0.47251-0.13897-0.77131-0.271-0.29184-0.13897-0.50726-0.40997-0.20846-0.27795-0.20846-0.73657 0-0.43081 0.21541-0.75045 0.21541-0.31965 0.60454-0.48641 0.38913-0.17372 0.88944-0.17372 0.75046 0 1.216 0.36828 0.47251 0.36133 0.52115 1.0145h-1.0701q-0.0139-0.271-0.21541-0.43082-0.19456-0.16677-0.52115-0.16677-0.2849 0-0.45861 0.15287-0.16677 0.14593-0.16677 0.43777 0 0.19456 0.12507 0.32659 0.13203 0.12508 0.31964 0.20846 0.19457 0.0764 0.542 0.18067 0.47251 0.13897 0.77131 0.27795 0.29879 0.13897 0.5142 0.41692t0.21541 0.72961q0 0.38913-0.20151 0.72267-0.20151 0.33353-0.59064 0.53505-0.38913 0.19456-0.92418 0.19456z"/>
     <path d="m106.58 132.78v0.76435h-1.2925v4.0858h-0.97281v-4.0858h-1.2925v-0.76435z"/>
     <path d="m112.69 134.28q0 0.38913-0.18761 0.72962-0.18067 0.34048-0.57674 0.54895-0.38913 0.20846-0.98672 0.20846h-0.813v1.8622h-0.97282v-4.8502h1.7858q0.56285 0 0.95892 0.19456 0.39608 0.19456 0.59064 0.53505 0.20151 0.34049 0.20151 0.7713zm-1.7928 0.72267q0.39607 0 0.59064-0.19456 0.20151-0.19457 0.20151-0.52811 0-0.34743-0.19456-0.53505-0.19457-0.19456-0.59759-0.19456h-0.77131v1.4523z"/>
     <path d="m114.35 134.46q0.18762-0.34743 0.48641-0.542 0.30574-0.19456 0.69487-0.19456v1.0215h-0.2571q-0.45861 0-0.69487 0.21541-0.22931 0.21541-0.22931 0.75046v1.9178h-0.97282v-3.8496h0.97282z"/>
     <path d="m117.9 137.69q-0.55589 0-1.0006-0.24321-0.44471-0.25015-0.70182-0.70182-0.25015-0.45166-0.25015-1.0423t0.2571-1.0423q0.26405-0.45166 0.71572-0.69487 0.45166-0.25015 1.0076-0.25015t1.0076 0.25015q0.45167 0.24321 0.70877 0.69487 0.26405 0.45167 0.26405 1.0423t-0.271 1.0423q-0.26405 0.45167-0.72267 0.70182-0.45166 0.24321-1.0145 0.24321zm0-0.83385q0.26406 0 0.49336-0.13202 0.23626-0.13203 0.37523-0.38913 0.13898-0.26405 0.13898-0.63233t-0.13898-0.62538q-0.13897-0.26406-0.36828-0.39608-0.22236-0.13203-0.48641-0.13203-0.40997 0-0.69487 0.30575-0.28489 0.29879-0.28489 0.84774t0.27794 0.85469q0.27795 0.29879 0.68792 0.29879z"/>
     <path d="m122.75 137.63-0.79216-1.1952-0.70181 1.1952h-1.0423l1.2577-1.9317-1.2716-1.9178h1.0979l0.7852 1.1882 0.70877-1.1882h1.0423l-1.2647 1.9178 1.2786 1.9317z"/>
     <path d="m125.02 133.78 0.99367 2.6892 1.0076-2.6892h1.0354l-2.3834 5.6701h-1.0354l0.83384-1.9178-1.5426-3.7523z"/>
    </g>
    <path d="m77.695 116.02 0.10011 1.4106s0.14242 2.0011 0.4696 4.3975c0.32718 2.3964 0.80995 5.1632 1.6218 6.8893 0.82464 1.7533 2.6206 3.5111 4.2155 4.9035 1.5949 1.3924 3.0032 2.388 3.0032 2.388l0.84455 0.597 0.17837-1.0175s0.29988-1.6913 0.29486-3.8587c-5e-3 -2.1674-0.2876-4.8426-1.5799-6.9075-2.4833-3.9681-8.0068-7.965-8.0068-7.965zm1.5744 2.8867c1.4715 1.1561 4.6896 3.7748 6.4634 6.609 1.0596 1.6931 1.3749 4.1716 1.3797 6.2176 0.0032 1.389-0.10341 1.8511-0.18566 2.4626-0.51084-0.37919-0.92088-0.65102-1.9639-1.5617-1.5401-1.3446-3.2468-3.1033-3.8915-4.4739-0.65749-1.3979-1.1881-4.1591-1.5089-6.5088-0.20413-1.4951-0.22507-1.9687-0.29304-2.7448z" color="#000000" fill="#5475b9" stroke-width=".93192" style="-inkscape-stroke:none"/>
    <path d="m70.159 112.53 0.18202 1.8365s0.75353 8.1414 3.3946 13.344c1.3698 2.698 4.0246 4.8867 6.325 6.4561 2.3004 1.5694 4.2865 2.5082 4.2865 2.5082l1.2432 0.58791-0.11103-1.3688s-0.16356-2.0571-0.63341-4.5759c-0.46985-2.5188-1.2104-5.5015-2.5391-7.5263-1.3103-1.9967-3.9511-4.4591-6.2977-6.5034s-4.3902-3.6276-4.3902-3.6276zm2.0786 3.704c0.78925 0.63056 1.2693 0.9838 2.7266 2.2534 2.3085 2.011 4.9233 4.5169 6.012 6.1758 1.0702 1.6308 1.8526 4.5142 2.3061 6.9457 0.29183 1.5645 0.31091 2.0542 0.39497 2.8376-0.71773-0.37331-1.2557-0.59473-2.7211-1.5944-2.1929-1.496-4.6592-3.6087-5.8026-5.8609-1.8641-3.6717-2.6013-8.4249-2.9159-10.757z" color="#000000" fill="#222d72" stroke-width=".93192" style="-inkscape-stroke:none"/>
   </g>
   <rect x="66.804" y="111.73" width="26.597" height="26.597" opacity="0" stroke-width="0"/>
  </g>
  <g transform="matrix(.51058 0 0 .51058 41.682 169.47)">
   <rect x="53.61" y="104.27" width="91.879" height="44.611" ry="0" fill="#fff" stroke="#000" stroke-width="1.2704"/>
   <rect x="66.804" y="111.73" width="26.597" height="26.597" opacity="0" stroke-width="0"/>
  </g>
  <text transform="matrix(.15327 0 0 .15327 24.275 160.66)" fill="#222d72" font-family="Montserrat" font-size="36.828px" font-weight="600" letter-spacing="0px" word-spacing="0px" style="line-height:1.25;shape-inside:url(#rect12563-8-2-4-3-9);white-space:pre" xml:space="preserve"/>
  <text x="94.960968" y="213.8786" font-family="Montserrat" font-size="4.123px" font-weight="600" letter-spacing="0px" stroke-width=".10308" word-spacing="0px" style="line-height:1.25" xml:space="preserve"><tspan x="94.960968" y="213.8786" font-family="Poppins" font-weight="500" stroke-width=".10308">HTTP POST</tspan></text>
  <path d="m93.509 222.22v-19.706" fill="none" stroke="#000" stroke-dasharray="1.59186, 0.397969" stroke-width=".39797"/>
  <path transform="matrix(.26458 0 0 .26458 17.48 108.17)" d="m294.27 360h-13.823l6.9113-11.971z" fill="#222d72" style="paint-order:markers fill stroke"/>
 </g>
</svg>
