<?xml version="1.0" encoding="UTF-8"?>
<svg width="898.84" height="622.93" version="1.1" viewBox="0 0 237.82 164.82" xmlns="http://www.w3.org/2000/svg">
 <g transform="translate(-61.386 -108.41)">
  <rect x="61.386" y="108.41" width="237.82" height="164.82" fill="#fff" style="paint-order:markers fill stroke"/>
  <path d="m93.509 154.69v19.706" fill="none" stroke="#000" stroke-dasharray="1.59186, 0.397969" stroke-width=".39797"/>
  <path d="m116.27 188.96h32.769" fill="none" stroke="#000" stroke-dasharray="2.05276, 0.513193" stroke-width=".51319"/>
  <g transform="matrix(.51058 0 0 .51058 41.682 123.91)">
   <g>
    <rect x="53.61" y="104.27" width="91.879" height="44.611" ry="0" fill="#222d72" stroke="#222d72" stroke-width="1.2704"/>
    <path d="m68.438 116.73 0.10011 1.4106s0.14242 2.0011 0.4696 4.3975c0.32718 2.3964 0.80995 5.1632 1.6218 6.8893 0.82464 1.7533 2.6206 3.5111 4.2155 4.9035 1.5949 1.3924 3.0032 2.388 3.0032 2.388l0.84455 0.597 0.17837-1.0175s0.29988-1.6913 0.29486-3.8587c-5e-3 -2.1674-0.2876-4.8426-1.5799-6.9075-2.4833-3.9681-8.0068-7.965-8.0068-7.965zm1.5744 2.8867c1.4715 1.1561 4.6896 3.7748 6.4634 6.609 1.0596 1.6931 1.3749 4.1716 1.3797 6.2176 0.0032 1.389-0.10341 1.8511-0.18566 2.4626-0.51084-0.37919-0.92088-0.65102-1.9639-1.5617-1.5401-1.3446-3.2468-3.1033-3.8915-4.4739-0.65749-1.3979-1.1881-4.1591-1.5089-6.5088-0.20413-1.4951-0.22507-1.9687-0.29304-2.7448z" color="#000000" fill="#abc0eb" stroke-width=".93192" style="-inkscape-stroke:none"/>
    <path d="m60.902 113.24 0.18202 1.8365s0.75353 8.1414 3.3946 13.344c1.3698 2.698 4.0246 4.8867 6.325 6.4561 2.3004 1.5694 4.2865 2.5082 4.2865 2.5082l1.2432 0.58791-0.11103-1.3688s-0.16356-2.0571-0.63341-4.5759c-0.46985-2.5188-1.2104-5.5015-2.5391-7.5263-1.3103-1.9967-3.9511-4.4591-6.2977-6.5034s-4.3902-3.6276-4.3902-3.6276zm2.0786 3.704c0.78925 0.63056 1.2693 0.9838 2.7266 2.2534 2.3085 2.011 4.9233 4.5169 6.012 6.1758 1.0702 1.6308 1.8526 4.5142 2.3061 6.9457 0.29183 1.5645 0.31091 2.0542 0.39497 2.8376-0.71773-0.37331-1.2557-0.59473-2.7211-1.5944-2.1929-1.496-4.6592-3.6087-5.8026-5.8609-1.8641-3.6717-2.6013-8.4249-2.9159-10.757z" color="#000000" fill="#fff" stroke-width=".93192" style="-inkscape-stroke:none"/>
   </g>
   <rect x="66.804" y="111.73" width="26.597" height="26.597" opacity="0" stroke-width="0"/>
  </g>
  <text transform="matrix(.26458 0 0 .26458 53.61 104.27)" font-family="Montserrat" font-size="40px" font-weight="600" letter-spacing="0px" word-spacing="0px" style="line-height:1.25;shape-inside:url(#rect6331);white-space:pre" xml:space="preserve"/>
  <g transform="matrix(.51058 0 0 .51058 219.32 107.49)">
   <g>
    <rect x="53.61" y="104.27" width="91.879" height="44.611" ry="0" fill="#222d72" stroke="#222d72" stroke-width="1.2704"/>
    <path d="m68.438 116.73 0.10011 1.4106s0.14242 2.0011 0.4696 4.3975c0.32718 2.3964 0.80995 5.1632 1.6218 6.8893 0.82464 1.7533 2.6206 3.5111 4.2155 4.9035 1.5949 1.3924 3.0032 2.388 3.0032 2.388l0.84455 0.597 0.17837-1.0175s0.29988-1.6913 0.29486-3.8587c-5e-3 -2.1674-0.2876-4.8426-1.5799-6.9075-2.4833-3.9681-8.0068-7.965-8.0068-7.965zm1.5744 2.8867c1.4715 1.1561 4.6896 3.7748 6.4634 6.609 1.0596 1.6931 1.3749 4.1716 1.3797 6.2176 0.0032 1.389-0.10341 1.8511-0.18566 2.4626-0.51084-0.37919-0.92088-0.65102-1.9639-1.5617-1.5401-1.3446-3.2468-3.1033-3.8915-4.4739-0.65749-1.3979-1.1881-4.1591-1.5089-6.5088-0.20413-1.4951-0.22507-1.9687-0.29304-2.7448z" color="#000000" fill="#abc0eb" stroke-width=".93192" style="-inkscape-stroke:none"/>
    <path d="m60.902 113.24 0.18202 1.8365s0.75353 8.1414 3.3946 13.344c1.3698 2.698 4.0246 4.8867 6.325 6.4561 2.3004 1.5694 4.2865 2.5082 4.2865 2.5082l1.2432 0.58791-0.11103-1.3688s-0.16356-2.0571-0.63341-4.5759c-0.46985-2.5188-1.2104-5.5015-2.5391-7.5263-1.3103-1.9967-3.9511-4.4591-6.2977-6.5034s-4.3902-3.6276-4.3902-3.6276zm2.0786 3.704c0.78925 0.63056 1.2693 0.9838 2.7266 2.2534 2.3085 2.011 4.9233 4.5169 6.012 6.1758 1.0702 1.6308 1.8526 4.5142 2.3061 6.9457 0.29183 1.5645 0.31091 2.0542 0.39497 2.8376-0.71773-0.37331-1.2557-0.59473-2.7211-1.5944-2.1929-1.496-4.6592-3.6087-5.8026-5.8609-1.8641-3.6717-2.6013-8.4249-2.9159-10.757z" color="#000000" fill="#fff" stroke-width=".93192" style="-inkscape-stroke:none"/>
   </g>
   <rect x="66.804" y="111.73" width="26.597" height="26.597" opacity="0" stroke-width="0"/>
  </g>
  <g transform="matrix(.51058 0 0 .51058 219.32 140.87)">
   <g>
    <rect x="53.61" y="104.27" width="91.879" height="44.611" ry="0" fill="#222d72" stroke="#222d72" stroke-width="1.2704"/>
    <path d="m68.438 116.73 0.10011 1.4106s0.14242 2.0011 0.4696 4.3975c0.32718 2.3964 0.80995 5.1632 1.6218 6.8893 0.82464 1.7533 2.6206 3.5111 4.2155 4.9035 1.5949 1.3924 3.0032 2.388 3.0032 2.388l0.84455 0.597 0.17837-1.0175s0.29988-1.6913 0.29486-3.8587c-5e-3 -2.1674-0.2876-4.8426-1.5799-6.9075-2.4833-3.9681-8.0068-7.965-8.0068-7.965zm1.5744 2.8867c1.4715 1.1561 4.6896 3.7748 6.4634 6.609 1.0596 1.6931 1.3749 4.1716 1.3797 6.2176 0.0032 1.389-0.10341 1.8511-0.18566 2.4626-0.51084-0.37919-0.92088-0.65102-1.9639-1.5617-1.5401-1.3446-3.2468-3.1033-3.8915-4.4739-0.65749-1.3979-1.1881-4.1591-1.5089-6.5088-0.20413-1.4951-0.22507-1.9687-0.29304-2.7448z" color="#000000" fill="#abc0eb" stroke-width=".93192" style="-inkscape-stroke:none"/>
    <path d="m60.902 113.24 0.18202 1.8365s0.75353 8.1414 3.3946 13.344c1.3698 2.698 4.0246 4.8867 6.325 6.4561 2.3004 1.5694 4.2865 2.5082 4.2865 2.5082l1.2432 0.58791-0.11103-1.3688s-0.16356-2.0571-0.63341-4.5759c-0.46985-2.5188-1.2104-5.5015-2.5391-7.5263-1.3103-1.9967-3.9511-4.4591-6.2977-6.5034s-4.3902-3.6276-4.3902-3.6276zm2.0786 3.704c0.78925 0.63056 1.2693 0.9838 2.7266 2.2534 2.3085 2.011 4.9233 4.5169 6.012 6.1758 1.0702 1.6308 1.8526 4.5142 2.3061 6.9457 0.29183 1.5645 0.31091 2.0542 0.39497 2.8376-0.71773-0.37331-1.2557-0.59473-2.7211-1.5944-2.1929-1.496-4.6592-3.6087-5.8026-5.8609-1.8641-3.6717-2.6013-8.4249-2.9159-10.757z" color="#000000" fill="#fff" stroke-width=".93192" style="-inkscape-stroke:none"/>
   </g>
   <rect x="66.804" y="111.73" width="26.597" height="26.597" opacity="0" stroke-width="0"/>
  </g>
  <g transform="matrix(.51058 0 0 .51058 41.682 78.36)">
   <rect x="53.61" y="104.27" width="91.879" height="44.611" ry="0" fill="#fff" stroke="#000" stroke-width="1.2704"/>
   <rect x="66.804" y="111.73" width="26.597" height="26.597" opacity="0" stroke-width="0"/>
  </g>
  <g transform="matrix(.51058 0 0 .51058 219.32 61.821)">
   <rect x="53.61" y="104.27" width="91.879" height="44.611" ry="0" fill="#fff" stroke="#000" stroke-width="1.2704"/>
   <rect x="66.804" y="111.73" width="26.597" height="26.597" opacity="0" stroke-width="0"/>
  </g>
  <g transform="matrix(.51058 0 0 .51058 219.32 186.5)">
   <rect x="53.61" y="104.27" width="91.879" height="44.611" ry="0" fill="#fff" stroke="#000" stroke-width="1.2704"/>
   <rect x="66.804" y="111.73" width="26.597" height="26.597" opacity="0" stroke-width="0"/>
  </g>
  <g transform="matrix(.51058 0 0 .51058 125.48 123.91)">
   <rect x="53.61" y="104.27" width="100.3" height="44.611" ry="0" fill="#fff" stroke="#000" stroke-width="1.2704"/>
   <rect x="66.804" y="111.73" width="26.597" height="26.597" opacity="0" stroke-width="0"/>
  </g>
  <path transform="matrix(.26458 0 0 -.26458 17.48 268.73)" d="m294.27 360h-13.823l6.9113-11.971z" fill="#222d72" style="paint-order:markers fill stroke"/>
  <path d="m270.36 138.48v19.706" fill="none" stroke="#000" stroke-dasharray="1.59186, 0.397969" stroke-width=".39797"/>
  <g stroke-width=".10308" aria-label="HTTP GET &lt;PULL&gt;">
   <path d="m274.63 144.83v2.8655h-0.47003v-1.2658h-1.3482v1.2658h-0.47002v-2.8655h0.47002v1.2369h1.3482v-1.2369z"/>
   <path d="m277.09 144.83v0.36695h-0.76276v2.4985h-0.47002v-2.4985h-0.76688v-0.36695z"/>
   <path d="m279.42 144.83v0.36695h-0.76275v2.4985h-0.47003v-2.4985h-0.76688v-0.36695z"/>
   <path d="m281.9 145.68q0 0.21852-0.10308 0.41231-0.10307 0.19378-0.32984 0.31747-0.22676 0.11956-0.58134 0.11956h-0.5195v1.1627h-0.47002v-2.8655h0.98952q0.32984 0 0.5566 0.11545 0.23089 0.11132 0.34221 0.3051 0.11545 0.19378 0.11545 0.43291zm-1.0143 0.4824q0.26799 0 0.39993-0.12782 0.13194-0.12781 0.13194-0.35458 0-0.23088-0.13194-0.3587-0.13194-0.12781-0.39993-0.12781h-0.5195v0.96891z"/>
   <path d="m283.43 146.26q0-0.42054 0.19378-0.75451 0.19791-0.33396 0.53187-0.5195 0.33809-0.18966 0.73802-0.18966 0.45765 0 0.81223 0.22677 0.3587 0.22264 0.5195 0.63494h-0.56485q-0.11132-0.21439-0.30923-0.32159-0.1979-0.11132-0.45765-0.11132-0.28449 0-0.50713 0.12781t-0.35046 0.36283q-0.12369 0.23501-0.12369 0.54423 0 0.30923 0.12369 0.54836 0.12782 0.23502 0.35046 0.36283t0.50713 0.12781q0.38344 0 0.62257-0.21439 0.24326-0.21852 0.29274-0.5896h-1.0761v-0.36694h1.5791v0.36694q-0.0454 0.33397-0.23913 0.61433-0.18966 0.28037-0.49889 0.44941-0.3051 0.16492-0.68029 0.16492-0.40406 0-0.73802-0.18553-0.33396-0.18966-0.53187-0.52363-0.19378-0.33396-0.19378-0.75451z"/>
   <path d="m287.24 145.19v0.86995h0.98952v0.36283h-0.98952v0.90294h1.1132v0.36694h-1.5832v-2.8696h1.5832v0.36695z"/>
   <path d="m290.78 144.83v0.36695h-0.76276v2.4985h-0.47002v-2.4985h-0.76688v-0.36695z"/>
   <path d="m273.38 152.48-0.9483-0.93592 0.9483-0.93593h0.59371l-0.95242 0.93593 0.95242 0.93592z"/>
   <path d="m276.86 151.02q0 0.21852-0.10308 0.4123-0.10307 0.19378-0.32984 0.31747-0.22676 0.11957-0.58134 0.11957h-0.5195v1.1627h-0.47002v-2.8655h0.98952q0.32984 0 0.5566 0.11545 0.23089 0.11132 0.34221 0.3051 0.11545 0.19378 0.11545 0.43292zm-1.0143 0.48239q0.26799 0 0.39993-0.12782 0.13194-0.12781 0.13194-0.35457 0-0.23089-0.13194-0.35871-0.13194-0.12781-0.39993-0.12781h-0.5195v0.96891z"/>
   <path d="m277.78 150.17v1.8182q0 0.32572 0.16905 0.49064 0.17316 0.16492 0.47827 0.16492 0.30922 0 0.47827-0.16492 0.17316-0.16492 0.17316-0.49064v-1.8182h0.47002v1.8182q0 0.35046-0.15255 0.59371-0.15255 0.24326-0.40817 0.36283-0.25563 0.11957-0.56486 0.11957-0.30922 0-0.56485-0.11957-0.2515-0.11957-0.39993-0.36283-0.14843-0.24325-0.14843-0.59371v-1.8182z"/>
   <path d="m280.63 152.67h0.96891v0.3587h-1.4389v-2.8655h0.47003z"/>
   <path d="m282.46 152.67h0.9689v0.3587h-1.4389v-2.8655h0.47003z"/>
   <path d="m283.97 150.61h0.59371l0.94829 0.93593-0.94829 0.93592h-0.59371l0.95241-0.93592z"/>
  </g>
  <g stroke-width=".10308" aria-label="HTTP POST &lt;PUSH&gt;">
   <path d="m274.63 222.5v2.8655h-0.47003v-1.2658h-1.3482v1.2658h-0.47002v-2.8655h0.47002v1.2369h1.3482v-1.2369z"/>
   <path d="m277.09 222.5v0.36695h-0.76276v2.4985h-0.47002v-2.4985h-0.76688v-0.36695z"/>
   <path d="m279.42 222.5v0.36695h-0.76275v2.4985h-0.47003v-2.4985h-0.76688v-0.36695z"/>
   <path d="m281.9 223.35q0 0.21852-0.10308 0.4123-0.10307 0.19379-0.32984 0.31748-0.22676 0.11956-0.58134 0.11956h-0.5195v1.1627h-0.47002v-2.8655h0.98952q0.32984 0 0.5566 0.11544 0.23089 0.11133 0.34221 0.30511 0.11545 0.19378 0.11545 0.43291zm-1.0143 0.48239q0.26799 0 0.39993-0.12781t0.13194-0.35458q0-0.23089-0.13194-0.3587t-0.39993-0.12781h-0.5195v0.9689z"/>
   <path d="m285.59 223.35q0 0.21852-0.10308 0.4123-0.10307 0.19379-0.32984 0.31748-0.22676 0.11956-0.58134 0.11956h-0.5195v1.1627h-0.47003v-2.8655h0.98953q0.32984 0 0.5566 0.11544 0.23089 0.11133 0.34221 0.30511 0.11545 0.19378 0.11545 0.43291zm-1.0143 0.48239q0.26799 0 0.39993-0.12781 0.13193-0.12781 0.13193-0.35458 0-0.23089-0.13193-0.3587-0.13194-0.12781-0.39993-0.12781h-0.5195v0.9689z"/>
   <path d="m287.34 225.39q-0.39994 0-0.73802-0.18553-0.33397-0.18966-0.53187-0.52362-0.19378-0.33809-0.19378-0.75864t0.19378-0.75451q0.1979-0.33396 0.53187-0.5195 0.33808-0.18966 0.73802-0.18966 0.40405 0 0.73801 0.18966 0.33809 0.18554 0.53187 0.5195t0.19378 0.75451-0.19378 0.75864q-0.19378 0.33396-0.53187 0.52362-0.33396 0.18553-0.73801 0.18553zm0-0.42467q0.28448 0 0.50713-0.12781 0.22264-0.13194 0.34633-0.36695 0.12781-0.23913 0.12781-0.54836 0-0.30922-0.12781-0.54424-0.12369-0.23501-0.34633-0.36282-0.22265-0.12781-0.50713-0.12781-0.28449 0-0.50713 0.12781-0.22265 0.12781-0.35046 0.36282-0.12369 0.23502-0.12369 0.54424 0 0.30923 0.12369 0.54836 0.12781 0.23501 0.35046 0.36695 0.22264 0.12781 0.50713 0.12781z"/>
   <path d="m290.21 225.39q-0.28861 0-0.51949-0.099-0.23089-0.10307-0.36283-0.28861t-0.13194-0.43292h0.50301q0.0165 0.19379 0.14431 0.31748 0.13193 0.12369 0.36694 0.12369 0.24326 0 0.37932-0.11957 0.13606-0.12369 0.13606-0.31747 0-0.14431-0.0866-0.23501-0.0825-0.0907-0.21028-0.14019-0.12369-0.0495-0.34633-0.1072-0.28036-0.0742-0.45765-0.14842-0.17317-0.0783-0.29686-0.23914-0.12369-0.1608-0.12369-0.42879 0-0.24738 0.12369-0.43292 0.12369-0.18553 0.34633-0.28449 0.22265-0.0989 0.51538-0.0989 0.41642 0 0.6803 0.21028 0.26799 0.20615 0.29685 0.56897h-0.5195q-0.0124-0.16904-0.14842-0.28036-0.13194-0.11545-0.35871-0.11545-0.20615 0-0.33396 0.1072-0.12369 0.10308-0.12369 0.30923 0 0.13193 0.0783 0.21852 0.0825 0.0825 0.20615 0.13193 0.12369 0.0495 0.33808 0.1072 0.28449 0.0783 0.46178 0.15668 0.18141 0.0783 0.3051 0.24325 0.12782 0.1608 0.12782 0.43292 0 0.21852-0.11957 0.4123-0.11544 0.19378-0.34221 0.31335-0.22264 0.11544-0.52775 0.11544z"/>
   <path d="m293.61 222.5v0.36695h-0.76276v2.4985h-0.47002v-2.4985h-0.76688v-0.36695z"/>
   <path d="m273.38 230.15-0.9483-0.93592 0.9483-0.93593h0.59371l-0.95242 0.93593 0.95242 0.93592z"/>
   <path d="m276.86 228.69q0 0.21852-0.10308 0.4123-0.10307 0.19379-0.32984 0.31748-0.22676 0.11956-0.58134 0.11956h-0.5195v1.1627h-0.47002v-2.8655h0.98952q0.32984 0 0.5566 0.11544 0.23089 0.11133 0.34221 0.30511 0.11545 0.19378 0.11545 0.43291zm-1.0143 0.4824q0.26799 0 0.39993-0.12782 0.13194-0.12781 0.13194-0.35458 0-0.23089-0.13194-0.3587t-0.39993-0.12781h-0.5195v0.96891z"/>
   <path d="m277.78 227.83v1.8182q0 0.32572 0.16905 0.49064 0.17316 0.16492 0.47827 0.16492 0.30922 0 0.47827-0.16492 0.17316-0.16492 0.17316-0.49064v-1.8182h0.47002v1.8182q0 0.35045-0.15255 0.59371t-0.40817 0.36283q-0.25563 0.11956-0.56486 0.11956-0.30922 0-0.56485-0.11956-0.2515-0.11957-0.39993-0.36283t-0.14843-0.59371v-1.8182z"/>
   <path d="m281.1 230.73q-0.28861 0-0.5195-0.0989-0.23088-0.10307-0.36282-0.28861-0.13194-0.18553-0.13194-0.43292h0.50301q0.0165 0.19379 0.14431 0.31748 0.13193 0.12369 0.36694 0.12369 0.24326 0 0.37932-0.11957 0.13606-0.12369 0.13606-0.31747 0-0.14431-0.0866-0.23501-0.0825-0.0907-0.21028-0.14019-0.12369-0.0495-0.34633-0.10719-0.28036-0.0742-0.45765-0.14843-0.17317-0.0783-0.29686-0.23914-0.12369-0.1608-0.12369-0.42879 0-0.24738 0.12369-0.43292 0.12369-0.18553 0.34633-0.28448 0.22265-0.099 0.51538-0.099 0.41642 0 0.6803 0.21028 0.26799 0.20615 0.29685 0.56897h-0.5195q-0.0124-0.16904-0.14843-0.28036-0.13193-0.11545-0.3587-0.11545-0.20615 0-0.33396 0.1072-0.12369 0.10308-0.12369 0.30923 0 0.13193 0.0783 0.21852 0.0825 0.0825 0.20615 0.13193 0.12369 0.0495 0.33808 0.1072 0.28449 0.0783 0.46178 0.15668 0.18141 0.0783 0.3051 0.24325 0.12782 0.1608 0.12782 0.43292 0 0.21852-0.11957 0.4123-0.11545 0.19378-0.34221 0.31335-0.22264 0.11544-0.52775 0.11544z"/>
   <path d="m284.94 227.83v2.8655h-0.47003v-1.2658h-1.3482v1.2658h-0.47002v-2.8655h0.47002v1.2369h1.3482v-1.2369z"/>
   <path d="m285.71 228.27h0.59371l0.94829 0.93593-0.94829 0.93592h-0.59371l0.95241-0.93592z"/>
  </g>
  <path transform="matrix(.26458 0 0 -.26458 194.33 252.52)" d="m294.27 360h-13.823l6.9113-11.971z" fill="#222d72" style="paint-order:markers fill stroke"/>
  <path d="m270.36 217.21v19.706" fill="none" stroke="#000" stroke-dasharray="1.59186, 0.397969" stroke-width=".39797"/>
  <g fill="#222d72">
   <path transform="matrix(.26458 0 0 -.26458 194.33 331.26)" d="m294.27 360h-13.823l6.9113-11.971z" style="paint-order:markers fill stroke"/>
   <path transform="matrix(0 .26458 -.26458 0 244.62 112.93)" d="m294.27 360h-13.823l6.9113-11.971z" style="paint-order:markers fill stroke"/>
   <path transform="matrix(0 .26458 .26458 0 112.33 104.19)" d="m294.27 360h-13.823l6.9113-11.971z" style="paint-order:markers fill stroke"/>
  </g>
  <path d="m204.89 197.73h38.01" fill="none" stroke="#000" stroke-dasharray="2.21082, 0.552711" stroke-width=".55271"/>
  <path d="m245.87 180.22h-38.01" fill="none" stroke="#000" stroke-dasharray="2.21082, 0.552711" stroke-width=".55271"/>
  <g fill="#222d72">
   <path transform="matrix(0 .26458 -.26458 0 338.44 121.7)" d="m294.27 360h-13.823l6.9113-11.971z" style="paint-order:markers fill stroke"/>
   <rect x="158.45" y="186.87" width="4.1915" height="4.1915" style="paint-order:markers fill stroke"/>
   <rect x="164.45" y="186.87" width="4.1915" height="4.1915" style="paint-order:markers fill stroke"/>
   <rect x="170.45" y="186.87" width="4.1915" height="4.1915" style="paint-order:markers fill stroke"/>
  </g>
  <g transform="matrix(.15327 0 0 .15327 28.721 115.76)" fill="#f4f5fc" style="shape-inside:url(#rect12563);white-space:pre" aria-label="Publisher">
   <path d="m375.26 473.22q0 2.0624-0.99434 3.8669-0.95752 1.8046-3.0567 2.9094-2.0624 1.1048-5.2295 1.1048h-4.3088v9.8698h-5.1559v-25.706h9.4647q2.983 0 5.0822 1.0312 2.0992 1.0312 3.1303 2.8357 1.068 1.8046 1.068 4.0879zm-9.5015 3.8301q2.0992 0 3.1304-1.0312 1.068-1.0312 1.068-2.7989 0-1.8414-1.0312-2.8357-1.0312-1.0312-3.1672-1.0312h-4.0879v7.697z"/>
   <path d="m398.17 470.57v20.402h-5.1927v-2.5779q-0.99434 1.3258-2.6148 2.0992-1.5836 0.73655-3.4618 0.73655-2.3938 0-4.2352-0.99434-1.8414-1.0312-2.9094-2.983-1.0312-1.9887-1.0312-4.7139v-11.969h5.1559v11.232q0 2.4306 1.2153 3.7564 1.2153 1.289 3.3145 1.289 2.136 0 3.3513-1.289 1.2153-1.3258 1.2153-3.7564v-11.232z"/>
   <path d="m408.41 473.55q0.99435-1.4731 2.7252-2.3938 1.7677-0.92069 4.0142-0.92069 2.6148 0 4.7139 1.289 2.136 1.289 3.3513 3.6828 1.2521 2.357 1.2521 5.4873 0 3.1303-1.2521 5.561-1.2153 2.3938-3.3513 3.7196-2.0992 1.3258-4.7139 1.3258-2.2833 0-4.0142-0.88387-1.6941-0.92069-2.7252-2.357v2.9094h-5.1559v-27.252h5.1559zm10.79 7.1446q0-1.8414-0.77338-3.1672-0.73655-1.3626-1.9887-2.0623-1.2153-0.69973-2.6516-0.69973-1.3994 0-2.6516 0.73656-1.2153 0.69972-1.9887 2.0623-0.73655 1.3626-0.73655 3.204t0.73655 3.204q0.77338 1.3626 1.9887 2.0992 1.2521 0.69972 2.6516 0.69972 1.4363 0 2.6516-0.73655 1.2521-0.73655 1.9887-2.0992 0.77338-1.3626 0.77338-3.2408z"/>
   <path d="m433.38 463.72v27.252h-5.1559v-27.252z"/>
   <path d="m441.07 468.14q-1.3626 0-2.2833-0.84704-0.88386-0.88386-0.88386-2.1728 0-1.289 0.88386-2.136 0.92069-0.88386 2.2833-0.88386t2.2465 0.88386q0.92069 0.84704 0.92069 2.136 0 1.289-0.92069 2.1728-0.88386 0.84704-2.2465 0.84704zm2.5411 2.4306v20.402h-5.1559v-20.402z"/>
   <path d="m456.47 491.3q-2.5043 0-4.493-0.88387-1.9519-0.92069-3.1303-2.4674-1.1417-1.5468-1.2521-3.425h5.1927q0.14731 1.289 1.1417 2.0992 0.99434 0.77338 2.5411 0.77338 1.4731 0 2.2833-0.58924 0.84704-0.62607 0.84704-1.6572 0-0.99435-1.0312-1.5099-0.99434-0.51559-3.2408-1.068-2.2465-0.55241-3.6828-1.1048-1.4363-0.58924-2.4674-1.8046-1.0312-1.2153-1.0312-3.204 0-1.7309 0.92069-3.1303 0.95752-1.4363 2.7621-2.2465 1.8414-0.84703 4.3088-0.84703 3.6459 0 5.8188 1.8414 2.1728 1.8046 2.3938 4.8981h-4.9349q-0.11048-1.289-1.0312-2.0624-0.88387-0.77338-2.3938-0.77338-1.3994 0-2.1728 0.58925-0.73655 0.55241-0.73655 1.5468 0 1.0312 1.0312 1.5836 1.0312 0.51559 3.204 1.068 2.2096 0.55242 3.6459 1.1417 1.4363 0.58924 2.4674 1.8046 1.0312 1.1785 1.0312 3.204 0 1.7677-0.95752 3.204-0.95752 1.3994-2.7621 2.2097t-4.272 0.81021z"/>
   <path d="m480.26 470.28q2.3201 0 4.1247 1.0312 1.8046 0.99434 2.7989 2.983 1.0312 1.9519 1.0312 4.7139v11.969h-5.1559v-11.269q0-2.4306-1.2153-3.7196-1.2153-1.3258-3.3145-1.3258-2.136 0-3.3881 1.3258-1.2153 1.289-1.2153 3.7196v11.269h-5.1559v-27.252h5.1559v9.391q0.99434-1.3258 2.6516-2.0623 1.6572-0.77338 3.6828-0.77338z"/>
   <path d="m512.08 480.29q0 1.0312-0.14731 1.915h-14.915q0.14731 2.2465 1.5099 3.5354 1.3626 1.289 3.3881 1.289 2.8726 0 4.0879-2.4674h5.561q-0.88386 2.9462-3.3881 4.8612-2.5043 1.8782-6.1502 1.8782-2.9462 0-5.3032-1.289-2.3201-1.3258-3.6459-3.7196-1.289-2.3938-1.289-5.5241 0-3.1672 1.289-5.561 1.289-2.3938 3.6091-3.6828 2.3201-1.289 5.34-1.289 2.9094 0 5.1927 1.2521 2.3201 1.2521 3.5723 3.5354 1.289 2.2833 1.289 5.2663zm-5.34-1.2153q-0.0368-2.136-1.4363-3.3513-1.3626-1.2521-3.425-1.2521-1.9519 0-3.2777 1.2521-1.3258 1.2153-1.5836 3.3513z"/>
   <path d="m520.99 474.18q0.99435-1.8414 2.5779-2.8726 1.6204-1.0312 3.6828-1.0312v5.4136h-1.3626q-2.4306 0-3.6828 1.1417-1.2153 1.1416-1.2153 3.9774v10.164h-5.1559v-20.402h5.1559z"/>
  </g>
  <rect x="176.45" y="186.87" width="4.1915" height="4.1915" fill="#222d72" style="paint-order:markers fill stroke"/>
  <g transform="matrix(.15327 0 0 .15327 206.48 99.866)" fill="#f4f5fc" style="shape-inside:url(#rect12563-8);white-space:pre" aria-label="Consumer">
   <path d="m355.27 478.08q0-3.7932 1.6941-6.7763 1.7309-3.0199 4.6771-4.6771 2.983-1.6941 6.6658-1.6941 4.3088 0 7.5497 2.2097 3.2408 2.2097 4.5298 6.1134h-5.9292q-0.92069-1.7677-2.5043-2.6516-1.5836-0.92069-3.6828-0.92069-2.2465 0-4.0142 1.0312-1.7309 1.0312-2.7252 2.9462-0.95752 1.915-0.95752 4.4193 0 2.5043 0.95752 4.4193 0.99435 1.8782 2.7252 2.9462 1.7677 1.0312 4.0142 1.0312 2.0992 0 3.6828-0.92069 1.6204-0.92069 2.5043-2.6884h5.9292q-1.289 3.9406-4.5298 6.1502-3.204 2.1728-7.5497 2.1728-3.6828 0-6.6658-1.6572-2.9462-1.6941-4.6771-4.6771-1.6941-2.983-1.6941-6.7763z"/>
   <path d="m393.86 491.3q-2.9462 0-5.3032-1.289-2.357-1.3258-3.7196-3.7196-1.3258-2.3938-1.3258-5.5241 0-3.1303 1.3626-5.5241 1.3994-2.3938 3.7932-3.6828 2.3938-1.3258 5.34-1.3258t5.34 1.3258q2.3938 1.289 3.7564 3.6828 1.3994 2.3938 1.3994 5.5241 0 3.1304-1.4363 5.5241-1.3994 2.3938-3.8301 3.7196-2.3938 1.289-5.3768 1.289zm0-4.4193q1.3994 0 2.6148-0.69972 1.2521-0.69973 1.9887-2.0624 0.73655-1.3994 0.73655-3.3513 0-1.9519-0.73655-3.3145-0.73655-1.3994-1.9519-2.0992-1.1785-0.69973-2.5779-0.69973-2.1728 0-3.6828 1.6204-1.5099 1.5836-1.5099 4.493t1.4731 4.5298q1.4731 1.5836 3.6459 1.5836z"/>
   <path d="m419.6 470.28q3.6459 0 5.8924 2.3201 2.2465 2.2833 2.2465 6.408v11.969h-5.1559v-11.269q0-2.4306-1.2153-3.7196-1.2153-1.3258-3.3145-1.3258-2.136 0-3.3881 1.3258-1.2153 1.289-1.2153 3.7196v11.269h-5.1559v-20.402h5.1559v2.5411q1.0312-1.3258 2.6148-2.0623 1.6204-0.77338 3.5354-0.77338z"/>
   <path d="m440.41 491.3q-2.5043 0-4.493-0.88387-1.9519-0.92069-3.1303-2.4674-1.1417-1.5468-1.2521-3.425h5.1927q0.14731 1.289 1.1416 2.0992 0.99435 0.77338 2.5411 0.77338 1.4731 0 2.2833-0.58924 0.84703-0.62607 0.84703-1.6572 0-0.99435-1.0312-1.5099-0.99434-0.51559-3.2408-1.068-2.2465-0.55241-3.6828-1.1048-1.4363-0.58924-2.4674-1.8046-1.0312-1.2153-1.0312-3.204 0-1.7309 0.92069-3.1303 0.95752-1.4363 2.7621-2.2465 1.8414-0.84703 4.3088-0.84703 3.6459 0 5.8188 1.8414 2.1728 1.8046 2.3938 4.8981h-4.9349q-0.11049-1.289-1.0312-2.0624-0.88386-0.77338-2.3938-0.77338-1.3994 0-2.1728 0.58925-0.73655 0.55241-0.73655 1.5468 0 1.0312 1.0312 1.5836 1.0312 0.51559 3.204 1.068 2.2097 0.55242 3.6459 1.1417 1.4363 0.58924 2.4674 1.8046 1.0312 1.1785 1.0312 3.204 0 1.7677-0.95752 3.204-0.95752 1.3994-2.7621 2.2097t-4.272 0.81021z"/>
   <path d="m471.97 470.57v20.402h-5.1927v-2.5779q-0.99435 1.3258-2.6148 2.0992-1.5836 0.73655-3.4618 0.73655-2.3938 0-4.2352-0.99434-1.8414-1.0312-2.9094-2.983-1.0312-1.9887-1.0312-4.7139v-11.969h5.1559v11.232q0 2.4306 1.2153 3.7564 1.2153 1.289 3.3145 1.289 2.136 0 3.3513-1.289 1.2153-1.3258 1.2153-3.7564v-11.232z"/>
   <path d="m502.39 470.28q3.7564 0 6.0397 2.3201 2.3201 2.2833 2.3201 6.408v11.969h-5.1559v-11.269q0-2.3938-1.2153-3.6459-1.2153-1.289-3.3145-1.289-2.0992 0-3.3513 1.289-1.2153 1.2521-1.2153 3.6459v11.269h-5.1559v-11.269q0-2.3938-1.2153-3.6459-1.2153-1.289-3.3145-1.289-2.136 0-3.3881 1.289-1.2153 1.2521-1.2153 3.6459v11.269h-5.1559v-20.402h5.1559v2.4674q0.99434-1.289 2.5411-2.0255 1.5836-0.73655 3.4618-0.73655 2.3938 0 4.272 1.0312 1.8782 0.99434 2.9094 2.8726 0.99434-1.7677 2.8726-2.8357 1.915-1.068 4.1247-1.068z"/>
   <path d="m534.62 480.29q0 1.0312-0.14731 1.915h-14.915q0.14731 2.2465 1.5099 3.5354 1.3626 1.289 3.3881 1.289 2.8726 0 4.0879-2.4674h5.561q-0.88386 2.9462-3.3881 4.8612-2.5043 1.8782-6.1502 1.8782-2.9462 0-5.3032-1.289-2.3201-1.3258-3.6459-3.7196-1.289-2.3938-1.289-5.5241 0-3.1672 1.289-5.561 1.289-2.3938 3.6091-3.6828 2.3201-1.289 5.34-1.289 2.9094 0 5.1927 1.2521 2.3201 1.2521 3.5723 3.5354 1.289 2.2833 1.289 5.2663zm-5.34-1.2153q-0.0368-2.136-1.4363-3.3513-1.3626-1.2521-3.425-1.2521-1.9519 0-3.2777 1.2521-1.3258 1.2153-1.5836 3.3513z"/>
   <path d="m543.53 474.18q0.99435-1.8414 2.5779-2.8726 1.6204-1.0312 3.6828-1.0312v5.4136h-1.3626q-2.4306 0-3.6828 1.1417-1.2153 1.1416-1.2153 3.9774v10.164h-5.1559v-20.402h5.1559z"/>
  </g>
  <rect x="182.45" y="186.87" width="4.1915" height="4.1915" fill="#222d72" style="paint-order:markers fill stroke"/>
  <g transform="matrix(.15327 0 0 .15327 206.48 132.91)" fill="#f4f5fc" style="shape-inside:url(#rect12563-8-2);white-space:pre" aria-label="Subscriber">
   <path d="m365.39 491.23q-2.6884 0-4.8612-0.92069-2.136-0.92069-3.3881-2.6516-1.2521-1.7309-1.289-4.0879h5.5241q0.11048 1.6204 1.1048 2.5779 1.0312 0.95752 2.7989 0.95752 1.8046 0 2.8357-0.88386 1.0312-0.88387 1.0312-2.357 0-1.1416-0.69972-1.8782-0.69973-0.73655-1.7677-1.1416-1.0312-0.44193-2.8726-0.95752-2.5043-0.73655-4.0879-1.4363-1.5468-0.73655-2.6884-2.1728-1.1048-1.4731-1.1048-3.9037 0-2.2833 1.1416-3.9774 1.1417-1.6941 3.204-2.5779 2.0624-0.92069 4.7139-0.92069 3.9774 0 6.4448 1.9519 2.5043 1.915 2.7621 5.3768h-5.6714q-0.0736-1.4363-1.1416-2.2833-1.0312-0.88386-2.7621-0.88386-1.5099 0-2.4306 0.8102-0.88387 0.77338-0.88387 2.3201 0 1.0312 0.6629 1.7309 0.69973 0.6629 1.6941 1.1048 1.0312 0.4051 2.8726 0.95751 2.5043 0.73656 4.0879 1.4731 1.5836 0.73655 2.7252 2.2096 1.1416 1.4731 1.1416 3.8669 0 2.0624-1.068 3.8301-1.068 1.7677-3.1303 2.8357-2.0624 1.0312-4.8981 1.0312z"/>
   <path d="m398.21 470.57v20.402h-5.1927v-2.5779q-0.99435 1.3258-2.6148 2.0992-1.5836 0.73655-3.4618 0.73655-2.3938 0-4.2352-0.99434-1.8414-1.0312-2.9094-2.983-1.0312-1.9887-1.0312-4.7139v-11.969h5.1559v11.232q0 2.4306 1.2153 3.7564 1.2153 1.289 3.3145 1.289 2.136 0 3.3513-1.289 1.2153-1.3258 1.2153-3.7564v-11.232z"/>
   <path d="m408.44 473.55q0.99434-1.4731 2.7252-2.3938 1.7677-0.92069 4.0142-0.92069 2.6148 0 4.7139 1.289 2.136 1.289 3.3513 3.6828 1.2521 2.357 1.2521 5.4873 0 3.1303-1.2521 5.561-1.2153 2.3938-3.3513 3.7196-2.0992 1.3258-4.7139 1.3258-2.2833 0-4.0142-0.88387-1.6941-0.92069-2.7252-2.357v2.9094h-5.1559v-27.252h5.1559zm10.79 7.1446q0-1.8414-0.77338-3.1672-0.73655-1.3626-1.9887-2.0623-1.2153-0.69973-2.6516-0.69973-1.3994 0-2.6516 0.73656-1.2153 0.69972-1.9887 2.0623-0.73655 1.3626-0.73655 3.204t0.73655 3.204q0.77338 1.3626 1.9887 2.0992 1.2521 0.69972 2.6516 0.69972 1.4363 0 2.6516-0.73655 1.2521-0.73655 1.9887-2.0992 0.77338-1.3626 0.77338-3.2408z"/>
   <path d="m436.03 491.3q-2.5043 0-4.493-0.88387-1.9519-0.92069-3.1303-2.4674-1.1417-1.5468-1.2521-3.425h5.1927q0.14731 1.289 1.1417 2.0992 0.99434 0.77338 2.5411 0.77338 1.4731 0 2.2833-0.58924 0.84704-0.62607 0.84704-1.6572 0-0.99435-1.0312-1.5099-0.99434-0.51559-3.2408-1.068-2.2465-0.55241-3.6828-1.1048-1.4363-0.58924-2.4674-1.8046-1.0312-1.2153-1.0312-3.204 0-1.7309 0.92069-3.1303 0.95752-1.4363 2.7621-2.2465 1.8414-0.84703 4.3088-0.84703 3.6459 0 5.8188 1.8414 2.1728 1.8046 2.3938 4.8981h-4.9349q-0.11049-1.289-1.0312-2.0624-0.88386-0.77338-2.3938-0.77338-1.3994 0-2.1728 0.58925-0.73655 0.55241-0.73655 1.5468 0 1.0312 1.0312 1.5836 1.0312 0.51559 3.204 1.068 2.2097 0.55242 3.6459 1.1417 1.4363 0.58924 2.4674 1.8046 1.0312 1.1785 1.0312 3.204 0 1.7677-0.95752 3.204-0.95752 1.3994-2.7621 2.2097t-4.272 0.81021z"/>
   <path d="m447 480.77q0-3.1672 1.289-5.5241 1.289-2.3938 3.5723-3.6828 2.2833-1.3258 5.2295-1.3258 3.7932 0 6.2607 1.915 2.5043 1.8782 3.3513 5.3032h-5.561q-0.44193-1.3258-1.5099-2.0624-1.0312-0.77338-2.5779-0.77338-2.2096 0-3.4986 1.6204-1.289 1.5836-1.289 4.5298 0 2.9094 1.289 4.5298 1.289 1.5836 3.4986 1.5836 3.1304 0 4.0879-2.7989h5.561q-0.84703 3.3145-3.3513 5.2663-2.5043 1.9519-6.2607 1.9519-2.9462 0-5.2295-1.289-2.2833-1.3258-3.5723-3.6828-1.289-2.3938-1.289-5.561z"/>
   <path d="m475.65 474.18q0.99434-1.8414 2.5779-2.8726 1.6204-1.0312 3.6828-1.0312v5.4136h-1.3626q-2.4306 0-3.6828 1.1417-1.2153 1.1416-1.2153 3.9774v10.164h-5.1559v-20.402h5.1559z"/>
   <path d="m487.99 468.14q-1.3626 0-2.2833-0.84704-0.88386-0.88386-0.88386-2.1728 0-1.289 0.88386-2.136 0.92069-0.88386 2.2833-0.88386t2.2465 0.88386q0.92069 0.84704 0.92069 2.136 0 1.289-0.92069 2.1728-0.88386 0.84704-2.2465 0.84704zm2.5411 2.4306v20.402h-5.1559v-20.402z"/>
   <path d="m500.77 473.55q0.99435-1.4731 2.7252-2.3938 1.7677-0.92069 4.0142-0.92069 2.6148 0 4.7139 1.289 2.136 1.289 3.3513 3.6828 1.2521 2.357 1.2521 5.4873 0 3.1303-1.2521 5.561-1.2153 2.3938-3.3513 3.7196-2.0992 1.3258-4.7139 1.3258-2.2833 0-4.0142-0.88387-1.6941-0.92069-2.7252-2.357v2.9094h-5.1559v-27.252h5.1559zm10.79 7.1446q0-1.8414-0.77338-3.1672-0.73655-1.3626-1.9887-2.0623-1.2153-0.69973-2.6516-0.69973-1.3994 0-2.6516 0.73656-1.2153 0.69972-1.9887 2.0623-0.73655 1.3626-0.73655 3.204t0.73655 3.204q0.77338 1.3626 1.9887 2.0992 1.2521 0.69972 2.6516 0.69972 1.4363 0 2.6516-0.73655 1.2521-0.73655 1.9887-2.0992 0.77338-1.3626 0.77338-3.2408z"/>
   <path d="m539.55 480.29q0 1.0312-0.14731 1.915h-14.915q0.14731 2.2465 1.5099 3.5354 1.3626 1.289 3.3881 1.289 2.8726 0 4.0879-2.4674h5.561q-0.88387 2.9462-3.3881 4.8612-2.5043 1.8782-6.1502 1.8782-2.9462 0-5.3032-1.289-2.3201-1.3258-3.6459-3.7196-1.289-2.3938-1.289-5.5241 0-3.1672 1.289-5.561 1.289-2.3938 3.6091-3.6828 2.3201-1.289 5.34-1.289 2.9094 0 5.1927 1.2521 2.3201 1.2521 3.5723 3.5354 1.289 2.2833 1.289 5.2663zm-5.34-1.2153q-0.0368-2.136-1.4363-3.3513-1.3626-1.2521-3.425-1.2521-1.9519 0-3.2777 1.2521-1.3258 1.2153-1.5836 3.3513z"/>
   <path d="m548.46 474.18q0.99435-1.8414 2.5779-2.8726 1.6204-1.0312 3.6828-1.0312v5.4136h-1.3626q-2.4306 0-3.6828 1.1417-1.2153 1.1416-1.2153 3.9774v10.164h-5.1559v-20.402h5.1559z"/>
  </g>
  <g fill="#222d72">
   <rect x="188.45" y="186.87" width="4.1915" height="4.1915" opacity=".49153" style="paint-order:markers fill stroke"/>
   <g transform="matrix(.15327 0 0 .15327 24.275 69.553)" style="shape-inside:url(#rect12563-8-2-4-3-8-5);white-space:pre" aria-label="Service A">
    <path d="m365.39 491.23q-2.6884 0-4.8612-0.92069-2.136-0.92069-3.3881-2.6516-1.2521-1.7309-1.289-4.0879h5.5241q0.11048 1.6204 1.1048 2.5779 1.0312 0.95752 2.7989 0.95752 1.8046 0 2.8357-0.88386 1.0312-0.88387 1.0312-2.357 0-1.1416-0.69972-1.8782-0.69973-0.73655-1.7677-1.1416-1.0312-0.44193-2.8726-0.95752-2.5043-0.73655-4.0879-1.4363-1.5468-0.73655-2.6884-2.1728-1.1048-1.4731-1.1048-3.9037 0-2.2833 1.1416-3.9774 1.1417-1.6941 3.204-2.5779 2.0624-0.92069 4.7139-0.92069 3.9774 0 6.4448 1.9519 2.5043 1.915 2.7621 5.3768h-5.6714q-0.0736-1.4363-1.1416-2.2833-1.0312-0.88386-2.7621-0.88386-1.5099 0-2.4306 0.8102-0.88387 0.77338-0.88387 2.3201 0 1.0312 0.6629 1.7309 0.69973 0.6629 1.6941 1.1048 1.0312 0.4051 2.8726 0.95751 2.5043 0.73656 4.0879 1.4731 1.5836 0.73655 2.7252 2.2096 1.1416 1.4731 1.1416 3.8669 0 2.0624-1.068 3.8301-1.068 1.7677-3.1303 2.8357-2.0624 1.0312-4.8981 1.0312z"/>
    <path d="m397.91 480.29q0 1.0312-0.14731 1.915h-14.915q0.14731 2.2465 1.5099 3.5354 1.3626 1.289 3.3881 1.289 2.8726 0 4.0879-2.4674h5.561q-0.88386 2.9462-3.3881 4.8612-2.5043 1.8782-6.1502 1.8782-2.9462 0-5.3032-1.289-2.3201-1.3258-3.6459-3.7196-1.289-2.3938-1.289-5.5241 0-3.1672 1.289-5.561 1.289-2.3938 3.6091-3.6828 2.3201-1.289 5.34-1.289 2.9094 0 5.1927 1.2521 2.3201 1.2521 3.5723 3.5354 1.289 2.2833 1.289 5.2663zm-5.34-1.2153q-0.0368-2.136-1.4363-3.3513-1.3626-1.2521-3.425-1.2521-1.9519 0-3.2777 1.2521-1.3258 1.2153-1.5836 3.3513z"/>
    <path d="m406.82 474.18q0.99434-1.8414 2.5779-2.8726 1.6204-1.0312 3.6828-1.0312v5.4136h-1.3626q-2.4306 0-3.6828 1.1417-1.2153 1.1416-1.2153 3.9774v10.164h-5.1559v-20.402h5.1559z"/>
    <path d="m425.05 486.22 5.1559-15.652h5.5241l-7.5128 20.402h-6.3344l-7.5128-20.402h5.5241z"/>
    <path d="m441.22 468.14q-1.3626 0-2.2833-0.84704-0.88386-0.88386-0.88386-2.1728 0-1.289 0.88386-2.136 0.92069-0.88386 2.2833-0.88386t2.2465 0.88386q0.92069 0.84704 0.92069 2.136 0 1.289-0.92069 2.1728-0.88386 0.84704-2.2465 0.84704zm2.5411 2.4306v20.402h-5.1559v-20.402z"/>
    <path d="m447.52 480.77q0-3.1672 1.289-5.5241 1.289-2.3938 3.5723-3.6828 2.2833-1.3258 5.2295-1.3258 3.7932 0 6.2607 1.915 2.5043 1.8782 3.3513 5.3032h-5.561q-0.44193-1.3258-1.5099-2.0624-1.0312-0.77338-2.5779-0.77338-2.2097 0-3.4986 1.6204-1.289 1.5836-1.289 4.5298 0 2.9094 1.289 4.5298 1.289 1.5836 3.4986 1.5836 3.1304 0 4.0879-2.7989h5.561q-0.84703 3.3145-3.3513 5.2663-2.5043 1.9519-6.2607 1.9519-2.9462 0-5.2295-1.289-2.2833-1.3258-3.5723-3.6828-1.289-2.3938-1.289-5.561z"/>
    <path d="m489.98 480.29q0 1.0312-0.14731 1.915h-14.915q0.14731 2.2465 1.5099 3.5354 1.3626 1.289 3.3881 1.289 2.8726 0 4.0879-2.4674h5.561q-0.88386 2.9462-3.3881 4.8612-2.5043 1.8782-6.1502 1.8782-2.9462 0-5.3032-1.289-2.3201-1.3258-3.6459-3.7196-1.289-2.3938-1.289-5.5241 0-3.1672 1.289-5.561 1.289-2.3938 3.6091-3.6828 2.3201-1.289 5.34-1.289 2.9094 0 5.1927 1.2521 2.3201 1.2521 3.5723 3.5354 1.289 2.2833 1.289 5.2663zm-5.34-1.2153q-0.0368-2.136-1.4363-3.3513-1.3626-1.2521-3.425-1.2521-1.9519 0-3.2777 1.2521-1.3258 1.2153-1.5836 3.3513z"/>
    <path d="m519.37 486.07h-10.238l-1.6941 4.8981h-5.4137l9.2437-25.742h6.0029l9.2437 25.742h-5.4505zm-1.3626-4.0142-3.7564-10.864-3.7564 10.864z"/>
   </g>
   <rect x="194.45" y="186.87" width="4.1915" height="4.1915" opacity=".49153" style="paint-order:markers fill stroke"/>
   <g transform="matrix(.15327 0 0 .15327 201.92 53.014)" style="shape-inside:url(#rect12563-8-2-4-3-8-5-1);white-space:pre" aria-label="Service C">
    <path d="m365.39 491.23q-2.6884 0-4.8612-0.92069-2.136-0.92069-3.3881-2.6516-1.2521-1.7309-1.289-4.0879h5.5241q0.11048 1.6204 1.1048 2.5779 1.0312 0.95752 2.7989 0.95752 1.8046 0 2.8357-0.88386 1.0312-0.88387 1.0312-2.357 0-1.1416-0.69972-1.8782-0.69973-0.73655-1.7677-1.1416-1.0312-0.44193-2.8726-0.95752-2.5043-0.73655-4.0879-1.4363-1.5468-0.73655-2.6884-2.1728-1.1048-1.4731-1.1048-3.9037 0-2.2833 1.1416-3.9774 1.1417-1.6941 3.204-2.5779 2.0624-0.92069 4.7139-0.92069 3.9774 0 6.4448 1.9519 2.5043 1.915 2.7621 5.3768h-5.6714q-0.0736-1.4363-1.1416-2.2833-1.0312-0.88386-2.7621-0.88386-1.5099 0-2.4306 0.8102-0.88387 0.77338-0.88387 2.3201 0 1.0312 0.6629 1.7309 0.69973 0.6629 1.6941 1.1048 1.0312 0.4051 2.8726 0.95751 2.5043 0.73656 4.0879 1.4731 1.5836 0.73655 2.7252 2.2096 1.1416 1.4731 1.1416 3.8669 0 2.0624-1.068 3.8301-1.068 1.7677-3.1303 2.8357-2.0624 1.0312-4.8981 1.0312z"/>
    <path d="m397.91 480.29q0 1.0312-0.14731 1.915h-14.915q0.14731 2.2465 1.5099 3.5354 1.3626 1.289 3.3881 1.289 2.8726 0 4.0879-2.4674h5.561q-0.88386 2.9462-3.3881 4.8612-2.5043 1.8782-6.1502 1.8782-2.9462 0-5.3032-1.289-2.3201-1.3258-3.6459-3.7196-1.289-2.3938-1.289-5.5241 0-3.1672 1.289-5.561 1.289-2.3938 3.6091-3.6828 2.3201-1.289 5.34-1.289 2.9094 0 5.1927 1.2521 2.3201 1.2521 3.5723 3.5354 1.289 2.2833 1.289 5.2663zm-5.34-1.2153q-0.0368-2.136-1.4363-3.3513-1.3626-1.2521-3.425-1.2521-1.9519 0-3.2777 1.2521-1.3258 1.2153-1.5836 3.3513z"/>
    <path d="m406.82 474.18q0.99434-1.8414 2.5779-2.8726 1.6204-1.0312 3.6828-1.0312v5.4136h-1.3626q-2.4306 0-3.6828 1.1417-1.2153 1.1416-1.2153 3.9774v10.164h-5.1559v-20.402h5.1559z"/>
    <path d="m425.05 486.22 5.1559-15.652h5.5241l-7.5128 20.402h-6.3344l-7.5128-20.402h5.5241z"/>
    <path d="m441.22 468.14q-1.3626 0-2.2833-0.84704-0.88386-0.88386-0.88386-2.1728 0-1.289 0.88386-2.136 0.92069-0.88386 2.2833-0.88386t2.2465 0.88386q0.92069 0.84704 0.92069 2.136 0 1.289-0.92069 2.1728-0.88386 0.84704-2.2465 0.84704zm2.5411 2.4306v20.402h-5.1559v-20.402z"/>
    <path d="m447.52 480.77q0-3.1672 1.289-5.5241 1.289-2.3938 3.5723-3.6828 2.2833-1.3258 5.2295-1.3258 3.7932 0 6.2607 1.915 2.5043 1.8782 3.3513 5.3032h-5.561q-0.44193-1.3258-1.5099-2.0624-1.0312-0.77338-2.5779-0.77338-2.2097 0-3.4986 1.6204-1.289 1.5836-1.289 4.5298 0 2.9094 1.289 4.5298 1.289 1.5836 3.4986 1.5836 3.1304 0 4.0879-2.7989h5.561q-0.84703 3.3145-3.3513 5.2663-2.5043 1.9519-6.2607 1.9519-2.9462 0-5.2295-1.289-2.2833-1.3258-3.5723-3.6828-1.289-2.3938-1.289-5.561z"/>
    <path d="m489.98 480.29q0 1.0312-0.14731 1.915h-14.915q0.14731 2.2465 1.5099 3.5354 1.3626 1.289 3.3881 1.289 2.8726 0 4.0879-2.4674h5.561q-0.88386 2.9462-3.3881 4.8612-2.5043 1.8782-6.1502 1.8782-2.9462 0-5.3032-1.289-2.3201-1.3258-3.6459-3.7196-1.289-2.3938-1.289-5.5241 0-3.1672 1.289-5.561 1.289-2.3938 3.6091-3.6828 2.3201-1.289 5.34-1.289 2.9094 0 5.1927 1.2521 2.3201 1.2521 3.5723 3.5354 1.289 2.2833 1.289 5.2663zm-5.34-1.2153q-0.0368-2.136-1.4363-3.3513-1.3626-1.2521-3.425-1.2521-1.9519 0-3.2777 1.2521-1.3258 1.2153-1.5836 3.3513z"/>
    <path d="m502.35 478.08q0-3.7932 1.6941-6.7763 1.7309-3.0199 4.6771-4.6771 2.983-1.6941 6.6658-1.6941 4.3088 0 7.5497 2.2097t4.5298 6.1134h-5.9292q-0.92069-1.7677-2.5043-2.6516-1.5836-0.92069-3.6828-0.92069-2.2465 0-4.0142 1.0312-1.7309 1.0312-2.7252 2.9462-0.95751 1.915-0.95751 4.4193 0 2.5043 0.95751 4.4193 0.99435 1.8782 2.7252 2.9462 1.7677 1.0312 4.0142 1.0312 2.0992 0 3.6828-0.92069 1.6204-0.92069 2.5043-2.6884h5.9292q-1.289 3.9406-4.5298 6.1502-3.204 2.1728-7.5497 2.1728-3.6828 0-6.6658-1.6572-2.9462-1.6941-4.6771-4.6771-1.6941-2.983-1.6941-6.7763z"/>
   </g>
  </g>
  <g transform="matrix(.59762 0 0 .59762 26.767 187.87)">
   <g>
    <g transform="matrix(.77007 0 0 .77007 22.453 28.748)" fill="#222d72" stroke-width=".37288" aria-label="Bunny ">
     <path d="m96.541 126.04q0.87998 0.16406 1.4468 0.87998t0.56677 1.6406q0 0.83524-0.41762 1.4766-0.4027 0.62643-1.1783 0.98439t-1.8345 0.35796h-4.4894v-10.411h4.2955q1.059 0 1.8196 0.34304 0.77558 0.34305 1.1634 0.95456 0.4027 0.61152 0.4027 1.3871 0 0.90981-0.4922 1.5213-0.47728 0.61151-1.2827 0.86507zm-3.8182-0.74575h1.9091q0.74575 0 1.1485-0.34305 0.4027-0.34304 0.4027-0.98439 0-0.64134-0.41762-0.9993-0.4027-0.35796-1.1335-0.35796h-1.9091zm2.103 4.4298q0.76066 0 1.1783-0.35796 0.43254-0.37287 0.43254-1.059 0-0.67118-0.44745-1.059t-1.2081-0.38779h-2.0583v2.8637z"/>
     <path d="m108.03 123.12v8.2629h-2.103v-1.044q-0.4027 0.53694-1.059 0.85015-0.64135 0.2983-1.402 0.2983-0.96948 0-1.7152-0.4027-0.74575-0.41762-1.1783-1.2081-0.41762-0.80541-0.41762-1.9091v-4.8474h2.0881v4.5491q0 0.98439 0.49219 1.5213 0.4922 0.52203 1.3424 0.52203 0.86507 0 1.3573-0.52203 0.49219-0.53694 0.49219-1.5213v-4.5491z"/>
     <path d="m114.66 123q1.4766 0 2.3864 0.93964 0.90982 0.92473 0.90982 2.5952v4.8474h-2.0881v-4.564q0-0.98439-0.4922-1.5064-0.49219-0.53694-1.3424-0.53694-0.86507 0-1.3722 0.53694-0.49219 0.52203-0.49219 1.5064v4.564h-2.0881v-8.2629h2.0881v1.0291q0.41762-0.53694 1.059-0.83524 0.65626-0.31321 1.4318-0.31321z"/>
     <path d="m124.52 123q1.4766 0 2.3864 0.93964 0.90981 0.92473 0.90981 2.5952v4.8474h-2.0881v-4.564q0-0.98439-0.49219-1.5064-0.4922-0.53694-1.3424-0.53694-0.86507 0-1.3722 0.53694-0.4922 0.52203-0.4922 1.5064v4.564h-2.0881v-8.2629h2.0881v1.0291q0.41762-0.53694 1.059-0.83524 0.65626-0.31321 1.4318-0.31321z"/>
     <path d="m131.19 123.12 2.1328 5.7721 2.1627-5.7721h2.2223l-5.1158 12.171h-2.2223l1.7898-4.1165-3.3111-8.0541z"/>
    </g>
    <g transform="matrix(.77007 0 0 .77007 22.453 28.748)" fill="#5475b9" stroke-width=".32572" aria-label="REST Proxy ">
     <path d="m93.401 137.63-1.0701-1.89h-0.45862v1.89h-0.97282v-4.8502h1.8206q0.56284 0 0.95892 0.20151 0.39608 0.19456 0.59064 0.53505 0.20151 0.33354 0.20151 0.75046 0 0.47946-0.27795 0.86858-0.27795 0.38218-0.8269 0.52811l1.1604 1.9665zm-1.5287-2.6127h0.813q0.39608 0 0.59064-0.19457 0.19456-0.19456 0.19456-0.53505 0-0.34048-0.19456-0.5281-0.19456-0.19456-0.59064-0.19456h-0.813z"/>
     <path d="m96.327 133.54v1.2577h1.6329v0.75046h-1.6329v1.3133h1.8414v0.77131h-2.8142v-4.8571h2.8142v0.76435z"/>
     <path d="m100.73 137.68q-0.50725 0-0.91723-0.17372-0.40302-0.17372-0.63928-0.5003-0.23626-0.32659-0.2432-0.77131h1.0423q0.02085 0.30574 0.20846 0.48641 0.19457 0.18066 0.52811 0.18066 0.34048 0 0.53505-0.16676 0.19456-0.16677 0.19456-0.44472 0-0.21541-0.13203-0.35438-0.13202-0.13898-0.33353-0.21541-0.19457-0.0834-0.542-0.18067-0.47251-0.13897-0.77131-0.271-0.29184-0.13897-0.50726-0.40997-0.20846-0.27795-0.20846-0.73657 0-0.43081 0.21541-0.75045 0.21541-0.31965 0.60454-0.48641 0.38913-0.17372 0.88944-0.17372 0.75046 0 1.216 0.36828 0.47251 0.36133 0.52115 1.0145h-1.0701q-0.0139-0.271-0.21541-0.43082-0.19456-0.16677-0.52115-0.16677-0.2849 0-0.45861 0.15287-0.16677 0.14593-0.16677 0.43777 0 0.19456 0.12507 0.32659 0.13203 0.12508 0.31964 0.20846 0.19457 0.0764 0.542 0.18067 0.47251 0.13897 0.77131 0.27795 0.29879 0.13897 0.5142 0.41692t0.21541 0.72961q0 0.38913-0.20151 0.72267-0.20151 0.33353-0.59064 0.53505-0.38913 0.19456-0.92418 0.19456z"/>
     <path d="m106.58 132.78v0.76435h-1.2925v4.0858h-0.97281v-4.0858h-1.2925v-0.76435z"/>
     <path d="m112.69 134.28q0 0.38913-0.18761 0.72962-0.18067 0.34048-0.57674 0.54895-0.38913 0.20846-0.98672 0.20846h-0.813v1.8622h-0.97282v-4.8502h1.7858q0.56285 0 0.95892 0.19456 0.39608 0.19456 0.59064 0.53505 0.20151 0.34049 0.20151 0.7713zm-1.7928 0.72267q0.39607 0 0.59064-0.19456 0.20151-0.19457 0.20151-0.52811 0-0.34743-0.19456-0.53505-0.19457-0.19456-0.59759-0.19456h-0.77131v1.4523z"/>
     <path d="m114.35 134.46q0.18762-0.34743 0.48641-0.542 0.30574-0.19456 0.69487-0.19456v1.0215h-0.2571q-0.45861 0-0.69487 0.21541-0.22931 0.21541-0.22931 0.75046v1.9178h-0.97282v-3.8496h0.97282z"/>
     <path d="m117.9 137.69q-0.55589 0-1.0006-0.24321-0.44471-0.25015-0.70182-0.70182-0.25015-0.45166-0.25015-1.0423t0.2571-1.0423q0.26405-0.45166 0.71572-0.69487 0.45166-0.25015 1.0076-0.25015t1.0076 0.25015q0.45167 0.24321 0.70877 0.69487 0.26405 0.45167 0.26405 1.0423t-0.271 1.0423q-0.26405 0.45167-0.72267 0.70182-0.45166 0.24321-1.0145 0.24321zm0-0.83385q0.26406 0 0.49336-0.13202 0.23626-0.13203 0.37523-0.38913 0.13898-0.26405 0.13898-0.63233t-0.13898-0.62538q-0.13897-0.26406-0.36828-0.39608-0.22236-0.13203-0.48641-0.13203-0.40997 0-0.69487 0.30575-0.28489 0.29879-0.28489 0.84774t0.27794 0.85469q0.27795 0.29879 0.68792 0.29879z"/>
     <path d="m122.75 137.63-0.79216-1.1952-0.70181 1.1952h-1.0423l1.2577-1.9317-1.2716-1.9178h1.0979l0.7852 1.1882 0.70877-1.1882h1.0423l-1.2647 1.9178 1.2786 1.9317z"/>
     <path d="m125.02 133.78 0.99367 2.6892 1.0076-2.6892h1.0354l-2.3834 5.6701h-1.0354l0.83384-1.9178-1.5426-3.7523z"/>
    </g>
    <path d="m77.695 116.02 0.10011 1.4106s0.14242 2.0011 0.4696 4.3975c0.32718 2.3964 0.80995 5.1632 1.6218 6.8893 0.82464 1.7533 2.6206 3.5111 4.2155 4.9035 1.5949 1.3924 3.0032 2.388 3.0032 2.388l0.84455 0.597 0.17837-1.0175s0.29988-1.6913 0.29486-3.8587c-5e-3 -2.1674-0.2876-4.8426-1.5799-6.9075-2.4833-3.9681-8.0068-7.965-8.0068-7.965zm1.5744 2.8867c1.4715 1.1561 4.6896 3.7748 6.4634 6.609 1.0596 1.6931 1.3749 4.1716 1.3797 6.2176 0.0032 1.389-0.10341 1.8511-0.18566 2.4626-0.51084-0.37919-0.92088-0.65102-1.9639-1.5617-1.5401-1.3446-3.2468-3.1033-3.8915-4.4739-0.65749-1.3979-1.1881-4.1591-1.5089-6.5088-0.20413-1.4951-0.22507-1.9687-0.29304-2.7448z" color="#000000" fill="#5475b9" stroke-width=".93192" style="-inkscape-stroke:none"/>
    <path d="m70.159 112.53 0.18202 1.8365s0.75353 8.1414 3.3946 13.344c1.3698 2.698 4.0246 4.8867 6.325 6.4561 2.3004 1.5694 4.2865 2.5082 4.2865 2.5082l1.2432 0.58791-0.11103-1.3688s-0.16356-2.0571-0.63341-4.5759c-0.46985-2.5188-1.2104-5.5015-2.5391-7.5263-1.3103-1.9967-3.9511-4.4591-6.2977-6.5034s-4.3902-3.6276-4.3902-3.6276zm2.0786 3.704c0.78925 0.63056 1.2693 0.9838 2.7266 2.2534 2.3085 2.011 4.9233 4.5169 6.012 6.1758 1.0702 1.6308 1.8526 4.5142 2.3061 6.9457 0.29183 1.5645 0.31091 2.0542 0.39497 2.8376-0.71773-0.37331-1.2557-0.59473-2.7211-1.5944-2.1929-1.496-4.6592-3.6087-5.8026-5.8609-1.8641-3.6717-2.6013-8.4249-2.9159-10.757z" color="#000000" fill="#222d72" stroke-width=".93192" style="-inkscape-stroke:none"/>
   </g>
   <rect x="66.804" y="111.73" width="26.597" height="26.597" opacity="0" stroke-width="0"/>
  </g>
  <g transform="matrix(.51058 0 0 .51058 41.682 169.47)">
   <rect x="53.61" y="104.27" width="91.879" height="44.611" ry="0" fill="#fff" stroke="#000" stroke-width="1.2704"/>
   <rect x="66.804" y="111.73" width="26.597" height="26.597" opacity="0" stroke-width="0"/>
  </g>
  <g transform="matrix(.15327 0 0 .15327 201.92 177.69)" fill="#222d72" style="shape-inside:url(#rect12563-8-2-4-3-8-5-1-1);white-space:pre" aria-label="Service D">
   <path d="m365.39 491.23q-2.6884 0-4.8612-0.92069-2.136-0.92069-3.3881-2.6516-1.2521-1.7309-1.289-4.0879h5.5241q0.11048 1.6204 1.1048 2.5779 1.0312 0.95752 2.7989 0.95752 1.8046 0 2.8357-0.88386 1.0312-0.88387 1.0312-2.357 0-1.1416-0.69972-1.8782-0.69973-0.73655-1.7677-1.1416-1.0312-0.44193-2.8726-0.95752-2.5043-0.73655-4.0879-1.4363-1.5468-0.73655-2.6884-2.1728-1.1048-1.4731-1.1048-3.9037 0-2.2833 1.1416-3.9774 1.1417-1.6941 3.204-2.5779 2.0624-0.92069 4.7139-0.92069 3.9774 0 6.4448 1.9519 2.5043 1.915 2.7621 5.3768h-5.6714q-0.0736-1.4363-1.1416-2.2833-1.0312-0.88386-2.7621-0.88386-1.5099 0-2.4306 0.8102-0.88387 0.77338-0.88387 2.3201 0 1.0312 0.6629 1.7309 0.69973 0.6629 1.6941 1.1048 1.0312 0.4051 2.8726 0.95751 2.5043 0.73656 4.0879 1.4731 1.5836 0.73655 2.7252 2.2096 1.1416 1.4731 1.1416 3.8669 0 2.0624-1.068 3.8301-1.068 1.7677-3.1303 2.8357-2.0624 1.0312-4.8981 1.0312z"/>
   <path d="m397.91 480.29q0 1.0312-0.14731 1.915h-14.915q0.14731 2.2465 1.5099 3.5354 1.3626 1.289 3.3881 1.289 2.8726 0 4.0879-2.4674h5.561q-0.88386 2.9462-3.3881 4.8612-2.5043 1.8782-6.1502 1.8782-2.9462 0-5.3032-1.289-2.3201-1.3258-3.6459-3.7196-1.289-2.3938-1.289-5.5241 0-3.1672 1.289-5.561 1.289-2.3938 3.6091-3.6828 2.3201-1.289 5.34-1.289 2.9094 0 5.1927 1.2521 2.3201 1.2521 3.5723 3.5354 1.289 2.2833 1.289 5.2663zm-5.34-1.2153q-0.0368-2.136-1.4363-3.3513-1.3626-1.2521-3.425-1.2521-1.9519 0-3.2777 1.2521-1.3258 1.2153-1.5836 3.3513z"/>
   <path d="m406.82 474.18q0.99434-1.8414 2.5779-2.8726 1.6204-1.0312 3.6828-1.0312v5.4136h-1.3626q-2.4306 0-3.6828 1.1417-1.2153 1.1416-1.2153 3.9774v10.164h-5.1559v-20.402h5.1559z"/>
   <path d="m425.05 486.22 5.1559-15.652h5.5241l-7.5128 20.402h-6.3344l-7.5128-20.402h5.5241z"/>
   <path d="m441.22 468.14q-1.3626 0-2.2833-0.84704-0.88386-0.88386-0.88386-2.1728 0-1.289 0.88386-2.136 0.92069-0.88386 2.2833-0.88386t2.2465 0.88386q0.92069 0.84704 0.92069 2.136 0 1.289-0.92069 2.1728-0.88386 0.84704-2.2465 0.84704zm2.5411 2.4306v20.402h-5.1559v-20.402z"/>
   <path d="m447.52 480.77q0-3.1672 1.289-5.5241 1.289-2.3938 3.5723-3.6828 2.2833-1.3258 5.2295-1.3258 3.7932 0 6.2607 1.915 2.5043 1.8782 3.3513 5.3032h-5.561q-0.44193-1.3258-1.5099-2.0624-1.0312-0.77338-2.5779-0.77338-2.2097 0-3.4986 1.6204-1.289 1.5836-1.289 4.5298 0 2.9094 1.289 4.5298 1.289 1.5836 3.4986 1.5836 3.1304 0 4.0879-2.7989h5.561q-0.84703 3.3145-3.3513 5.2663-2.5043 1.9519-6.2607 1.9519-2.9462 0-5.2295-1.289-2.2833-1.3258-3.5723-3.6828-1.289-2.3938-1.289-5.561z"/>
   <path d="m489.98 480.29q0 1.0312-0.14731 1.915h-14.915q0.14731 2.2465 1.5099 3.5354 1.3626 1.289 3.3881 1.289 2.8726 0 4.0879-2.4674h5.561q-0.88386 2.9462-3.3881 4.8612-2.5043 1.8782-6.1502 1.8782-2.9462 0-5.3032-1.289-2.3201-1.3258-3.6459-3.7196-1.289-2.3938-1.289-5.5241 0-3.1672 1.289-5.561 1.289-2.3938 3.6091-3.6828 2.3201-1.289 5.34-1.289 2.9094 0 5.1927 1.2521 2.3201 1.2521 3.5723 3.5354 1.289 2.2833 1.289 5.2663zm-5.34-1.2153q-0.0368-2.136-1.4363-3.3513-1.3626-1.2521-3.425-1.2521-1.9519 0-3.2777 1.2521-1.3258 1.2153-1.5836 3.3513z"/>
   <path d="m512.59 465.27q4.051 0 7.1077 1.5836 3.0935 1.5836 4.7508 4.5298 1.6941 2.9094 1.6941 6.7763 0 3.8669-1.6941 6.7763-1.6572 2.8726-4.7508 4.4561-3.0567 1.5836-7.1077 1.5836h-8.9859v-25.706zm-0.18413 21.507q4.0142 0 6.2239-2.2833 2.2465-2.2833 2.2465-6.3344 0-4.0142-2.2096-6.2975-2.2097-2.2833-6.2607-2.2833h-3.6459v17.198z"/>
  </g>
  <path d="m93.509 222.22v-19.706" fill="none" stroke="#000" stroke-dasharray="1.59186, 0.397969" stroke-width=".39797"/>
  <g stroke-width=".10308" aria-label="HTTP POST">
   <path d="m97.558 163.51v2.8655h-0.47002v-1.2658h-1.3482v1.2658h-0.47002v-2.8655h0.47002v1.2369h1.3482v-1.2369z"/>
   <path d="m100.03 163.51v0.36695h-0.76276v2.4985h-0.47002v-2.4985h-0.76688v-0.36695z"/>
   <path d="m102.35 163.51v0.36695h-0.76275v2.4985h-0.47003v-2.4985h-0.76688v-0.36695z"/>
   <path d="m104.83 164.37q0 0.21852-0.10308 0.41231-0.10307 0.19378-0.32984 0.31747-0.22676 0.11956-0.58134 0.11956h-0.5195v1.1627h-0.47002v-2.8655h0.98952q0.32984 0 0.55661 0.11545 0.23088 0.11132 0.34221 0.3051 0.11544 0.19378 0.11544 0.43291zm-1.0143 0.4824q0.26799 0 0.39993-0.12782 0.13194-0.12781 0.13194-0.35458 0-0.23088-0.13194-0.3587-0.13194-0.12781-0.39993-0.12781h-0.5195v0.96891z"/>
   <path d="m108.52 164.37q0 0.21852-0.10308 0.41231-0.10307 0.19378-0.32984 0.31747-0.22676 0.11956-0.58134 0.11956h-0.5195v1.1627h-0.47003v-2.8655h0.98953q0.32984 0 0.5566 0.11545 0.23089 0.11132 0.34221 0.3051 0.11545 0.19378 0.11545 0.43291zm-1.0143 0.4824q0.26799 0 0.39993-0.12782 0.13194-0.12781 0.13194-0.35458 0-0.23088-0.13194-0.3587-0.13194-0.12781-0.39993-0.12781h-0.5195v0.96891z"/>
   <path d="m110.28 166.41q-0.39994 0-0.73802-0.18553-0.33397-0.18966-0.53187-0.52362-0.19378-0.33809-0.19378-0.75864 0-0.42054 0.19378-0.75451 0.1979-0.33396 0.53187-0.5195 0.33808-0.18966 0.73802-0.18966 0.40405 0 0.73802 0.18966 0.33808 0.18554 0.53186 0.5195 0.19379 0.33397 0.19379 0.75451 0 0.42055-0.19379 0.75864-0.19378 0.33396-0.53186 0.52362-0.33397 0.18553-0.73802 0.18553zm0-0.42467q0.28448 0 0.50713-0.12781 0.22264-0.13194 0.34633-0.36695 0.12781-0.23913 0.12781-0.54836 0-0.30922-0.12781-0.54423-0.12369-0.23502-0.34633-0.36283-0.22265-0.12781-0.50713-0.12781-0.28449 0-0.50713 0.12781-0.22265 0.12781-0.35046 0.36283-0.12369 0.23501-0.12369 0.54423 0 0.30923 0.12369 0.54836 0.12781 0.23501 0.35046 0.36695 0.22264 0.12781 0.50713 0.12781z"/>
   <path d="m113.15 166.41q-0.28862 0-0.5195-0.099-0.23089-0.10307-0.36283-0.28861-0.13194-0.18553-0.13194-0.43291h0.50301q0.0165 0.19378 0.14431 0.31747 0.13193 0.12369 0.36695 0.12369 0.24325 0 0.37931-0.11957 0.13606-0.12369 0.13606-0.31747 0-0.14431-0.0866-0.23501-0.0825-0.0907-0.21028-0.14019-0.12369-0.0495-0.34633-0.10719-0.28036-0.0742-0.45765-0.14843-0.17317-0.0783-0.29686-0.23914-0.12369-0.16079-0.12369-0.42879 0-0.24738 0.12369-0.43292 0.12369-0.18553 0.34633-0.28448 0.22265-0.099 0.51538-0.099 0.41642 0 0.6803 0.21028 0.26799 0.20615 0.29685 0.56897h-0.5195q-0.0124-0.16904-0.14842-0.28036-0.13194-0.11545-0.35871-0.11545-0.20615 0-0.33396 0.1072-0.12369 0.10308-0.12369 0.30923 0 0.13193 0.0783 0.21852 0.0825 0.0825 0.20615 0.13193 0.12369 0.0495 0.33808 0.1072 0.28449 0.0783 0.46178 0.15668 0.18141 0.0783 0.3051 0.24325 0.12782 0.1608 0.12782 0.43292 0 0.21852-0.11957 0.4123-0.11544 0.19378-0.34221 0.31335-0.22264 0.11544-0.52774 0.11544z"/>
   <path d="m116.54 163.51v0.36695h-0.76276v2.4985h-0.47002v-2.4985h-0.76688v-0.36695z"/>
  </g>
  <path transform="matrix(.26458 0 0 .26458 17.48 108.17)" d="m294.27 360h-13.823l6.9113-11.971z" fill="#222d72" style="paint-order:markers fill stroke"/>
  <g transform="matrix(.15327 0 0 .15327 109.53 122.47)" fill="#222d72" style="shape-inside:url(#rect12563-8-2-4-0);white-space:pre" aria-label="RabbitMQ">
   <path d="m374.31 490.97-5.2664-7.5497q-0.33145 0.0368-0.99434 0.0368h-5.8188v7.5128h-4.7876v-25.779h10.606q3.3513 0 5.8188 1.1048 2.5043 1.1048 3.8301 3.1672 1.3258 2.0624 1.3258 4.8981 0 2.9094-1.4363 5.0086-1.3994 2.0992-4.051 3.1304l5.9292 8.4704zm-0.11049-16.609q0-2.4674-1.6204-3.7932-1.6204-1.3258-4.7508-1.3258h-5.5978v10.275h5.5978q3.1304 0 4.7508-1.3258 1.6204-1.3626 1.6204-3.8301z"/>
   <path d="m391.25 471.09q4.3457 0 6.629 2.0992 2.3201 2.0623 2.3201 6.2607v11.527h-4.3457v-2.3938q-0.84703 1.289-2.4306 1.9887-1.5468 0.6629-3.7564 0.6629-2.2097 0-3.8669-0.73655-1.6572-0.77338-2.5779-2.0992-0.88386-1.3626-0.88386-3.0567 0-2.6516 1.9519-4.2352 1.9887-1.6204 6.2239-1.6204h5.0822v-0.29462q0-2.0624-1.2521-3.1672-1.2153-1.1048-3.6459-1.1048-1.6572 0-3.2777 0.51559-1.5836 0.51559-2.6884 1.4363l-1.8046-3.3513q1.5468-1.1785 3.7196-1.8046 2.1728-0.62607 4.6034-0.62607zm-0.62606 16.793q1.7309 0 3.0567-0.77338 1.3626-0.81021 1.915-2.2833v-2.2833h-4.7508q-3.9774 0-3.9774 2.6148 0 1.2521 0.99435 1.9887 0.99434 0.73655 2.7621 0.73655z"/>
   <path d="m416.99 471.09q2.8726 0 5.119 1.2521 2.2833 1.2521 3.5723 3.5354 1.289 2.2833 1.289 5.2664 0 2.983-1.289 5.3032-1.289 2.2833-3.5723 3.5354-2.2465 1.2521-5.119 1.2521-2.0255 0-3.7196-0.69972-1.6572-0.69973-2.7989-2.0992v2.5411h-4.3825v-27.326h4.6034v10.054q1.1785-1.289 2.7621-1.9519 1.6204-0.6629 3.5354-0.6629zm-0.51558 16.204q2.5411 0 4.1615-1.6941 1.6572-1.6941 1.6572-4.4561t-1.6572-4.4561q-1.6204-1.6941-4.1615-1.6941-1.6572 0-2.983 0.77338-1.3258 0.73655-2.0992 2.136t-0.77338 3.2408 0.77338 3.2408 2.0992 2.1728q1.3258 0.73655 2.983 0.73655z"/>
   <path d="m442.25 471.09q2.8726 0 5.119 1.2521 2.2833 1.2521 3.5723 3.5354t1.289 5.2664q0 2.983-1.289 5.3032-1.289 2.2833-3.5723 3.5354-2.2465 1.2521-5.119 1.2521-2.0255 0-3.7196-0.69972-1.6572-0.69973-2.7989-2.0992v2.5411h-4.3825v-27.326h4.6034v10.054q1.1785-1.289 2.7621-1.9519 1.6204-0.6629 3.5354-0.6629zm-0.51559 16.204q2.5411 0 4.1615-1.6941 1.6572-1.6941 1.6572-4.4561t-1.6572-4.4561q-1.6204-1.6941-4.1615-1.6941-1.6572 0-2.983 0.77338-1.3258 0.73655-2.0992 2.136t-0.77338 3.2408 0.77338 3.2408 2.0992 2.1728q1.3258 0.73655 2.983 0.73655z"/>
   <path d="m456.61 471.31h4.6034v19.666h-4.6034zm2.3201-3.2408q-1.2521 0-2.0992-0.77338-0.84703-0.81021-0.84703-1.9887t0.84703-1.9519q0.84703-0.81021 2.0992-0.81021t2.0992 0.77338q0.84703 0.73655 0.84703 1.8782 0 1.2153-0.84703 2.0623-0.81021 0.81021-2.0992 0.81021z"/>
   <path d="m479.08 489.91q-0.81021 0.66289-1.9887 0.99434-1.1416 0.33145-2.4306 0.33145-3.2408 0-5.0086-1.6941-1.7677-1.6941-1.7677-4.9349v-9.4647h-3.2408v-3.6828h3.2408v-4.493h4.6034v4.493h5.2664v3.6828h-5.2664v9.3542q0 1.4363 0.69973 2.2097 0.69972 0.73655 2.0255 0.73655 1.5468 0 2.5779-0.81021z"/>
   <path d="m507 490.97-0.0368-17.088-8.4704 14.142h-2.136l-8.4704-13.921v16.867h-4.5666v-25.779h3.9406l10.238 17.088 10.054-17.088h3.9406l0.0368 25.779z"/>
   <path d="m545.7 493.55q-1.289 1.5099-3.0199 2.2833-1.6941 0.77338-3.7196 0.77338-2.6516 0-4.8612-1.2153-2.2096-1.1785-5.0454-4.1247-3.5723-0.29462-6.408-2.0624-2.8357-1.8046-4.4193-4.6771-1.5836-2.9094-1.5836-6.4448 0-3.7564 1.8046-6.7763 1.8046-3.0567 4.9717-4.7508 3.1672-1.7309 7.1077-1.7309 3.9406 0 7.1077 1.7309 3.1672 1.6941 4.9717 4.7139 1.8046 3.0199 1.8046 6.8131 0 3.0567-1.2153 5.6714-1.2153 2.5779-3.3881 4.4193-2.1728 1.8046-5.0454 2.6148 1.068 1.1416 2.0992 1.6572 1.0312 0.51559 2.2097 0.51559 2.5411 0 4.4193-2.0624zm-24.233-15.468q0 2.5779 1.1785 4.6771 1.1785 2.0624 3.2408 3.2408 2.0623 1.1417 4.6403 1.1417 2.5779 0 4.6403-1.1417 2.0624-1.1785 3.2408-3.2408 1.1785-2.0992 1.1785-4.6771t-1.1785-4.6403q-1.1785-2.0992-3.2408-3.2408-2.0623-1.1785-4.6403-1.1785-2.5779 0-4.6403 1.1785-2.0624 1.1417-3.2408 3.2408-1.1785 2.0624-1.1785 4.6403z"/>
  </g>
  <g stroke-width=".10308">
   <g aria-label="AMQP PUBLISH">
    <path d="m119.62 187.07h-1.1998l-0.20615 0.58547h-0.49063l1.0266-2.8696h0.54423l1.0266 2.8696h-0.49476zm-0.12781-0.36694-0.47003-1.3482-0.47414 1.3482z"/>
    <path d="m123.78 184.79v2.8655h-0.47002v-1.9626l-0.87408 1.9626h-0.32571l-0.87821-1.9626v1.9626h-0.47002v-2.8655h0.50713l1.006 2.247 1.0019-2.247z"/>
    <path d="m126.62 188.18-0.50301-0.54424q-0.18554 0.0536-0.40818 0.0536-0.39993 0-0.73802-0.18553-0.33396-0.18966-0.53187-0.52363-0.19378-0.33808-0.19378-0.75863t0.19378-0.75451q0.19791-0.33396 0.53187-0.5195 0.33809-0.18966 0.73802-0.18966 0.40406 0 0.73802 0.18966 0.33809 0.18554 0.53187 0.5195t0.19378 0.75451q0 0.39581-0.17317 0.7174-0.16904 0.31748-0.47002 0.51126l0.68854 0.72977zm-1.8925-1.9584q0 0.30923 0.12369 0.54836 0.12782 0.23501 0.35046 0.36695 0.22264 0.12781 0.50713 0.12781t0.50713-0.12781q0.22264-0.13194 0.34633-0.36695 0.12782-0.23913 0.12782-0.54836t-0.12782-0.54424q-0.12369-0.23501-0.34633-0.36282-0.22264-0.12782-0.50713-0.12782t-0.50713 0.12782q-0.22264 0.12781-0.35046 0.36282-0.12369 0.23501-0.12369 0.54424z"/>
    <path d="m129.65 185.65q0 0.21852-0.10307 0.4123-0.10308 0.19378-0.32984 0.31747-0.22677 0.11957-0.58135 0.11957h-0.5195v1.1627h-0.47002v-2.8655h0.98952q0.32984 0 0.55661 0.11544 0.23089 0.11132 0.34221 0.30511 0.11544 0.19378 0.11544 0.43291zm-1.0143 0.48239q0.268 0 0.39994-0.12781 0.13193-0.12781 0.13193-0.35458 0-0.23089-0.13193-0.3587-0.13194-0.12781-0.39994-0.12781h-0.5195v0.9689z"/>
    <path d="m133.34 185.65q0 0.21852-0.10307 0.4123-0.10308 0.19378-0.32985 0.31747-0.22676 0.11957-0.58134 0.11957h-0.5195v1.1627h-0.47002v-2.8655h0.98952q0.32984 0 0.55661 0.11544 0.23089 0.11132 0.34221 0.30511 0.11544 0.19378 0.11544 0.43291zm-1.0143 0.48239q0.268 0 0.39993-0.12781 0.13194-0.12781 0.13194-0.35458 0-0.23089-0.13194-0.3587-0.13193-0.12781-0.39993-0.12781h-0.5195v0.9689z"/>
    <path d="m134.26 184.79v1.8182q0 0.32571 0.16904 0.49063 0.17317 0.16492 0.47827 0.16492 0.30923 0 0.47827-0.16492 0.17317-0.16492 0.17317-0.49063v-1.8182h0.47002v1.8182q0 0.35045-0.15255 0.59371t-0.40818 0.36282q-0.25563 0.11957-0.56485 0.11957-0.30923 0-0.56486-0.11957-0.2515-0.11956-0.39993-0.36282t-0.14843-0.59371v-1.8182z"/>
    <path d="m138.17 186.19q0.23089 0.0412 0.39168 0.24325 0.1608 0.20203 0.1608 0.45766 0 0.21852-0.11544 0.39581-0.11132 0.17316-0.32572 0.27624-0.2144 0.099-0.49888 0.099h-1.1462v-2.8655h1.0926q0.29273 0 0.503 0.099 0.21028 0.099 0.31748 0.268 0.10719 0.16492 0.10719 0.37107 0 0.24738-0.13193 0.4123-0.13194 0.16492-0.35458 0.24326zm-1.0637-0.17729h0.58135q0.23088 0 0.3587-0.11132 0.13193-0.11133 0.13193-0.30923 0-0.20203-0.13193-0.31335-0.12782-0.11544-0.3587-0.11544h-0.58135zm0.63495 1.2822q0.23913 0 0.37519-0.11956 0.13606-0.11957 0.13606-0.33397 0-0.21027-0.14431-0.33396-0.1443-0.12782-0.38344-0.12782h-0.61845v0.91531z"/>
    <path d="m139.7 187.3h0.96891v0.3587h-1.4389v-2.8655h0.47002z"/>
    <path d="m141.53 184.79v2.8655h-0.47002v-2.8655z"/>
    <path d="m143.1 187.69q-0.28861 0-0.51949-0.099-0.23089-0.10308-0.36283-0.28861-0.13194-0.18554-0.13194-0.43292h0.50301q0.0165 0.19378 0.14431 0.31747 0.13193 0.12369 0.36694 0.12369 0.24326 0 0.37932-0.11956 0.13606-0.12369 0.13606-0.31747 0-0.14431-0.0866-0.23502-0.0825-0.0907-0.21028-0.14018-0.12369-0.0495-0.34633-0.1072-0.28036-0.0742-0.45765-0.14842-0.17317-0.0783-0.29686-0.23914-0.12369-0.1608-0.12369-0.42879 0-0.24738 0.12369-0.43292 0.12369-0.18553 0.34633-0.28449 0.22265-0.099 0.51538-0.099 0.41642 0 0.6803 0.21028 0.26799 0.20615 0.29685 0.56897h-0.5195q-0.0124-0.16904-0.14842-0.28036-0.13194-0.11545-0.35871-0.11545-0.20615 0-0.33396 0.1072-0.12369 0.10307-0.12369 0.30923 0 0.13193 0.0783 0.21851 0.0825 0.0825 0.20615 0.13194 0.12369 0.0495 0.33808 0.1072 0.28449 0.0783 0.46178 0.15667 0.18141 0.0783 0.3051 0.24326 0.12782 0.1608 0.12782 0.43292 0 0.21852-0.11957 0.4123-0.11544 0.19378-0.34221 0.31335-0.22264 0.11544-0.52775 0.11544z"/>
    <path d="m146.93 184.79v2.8655h-0.47003v-1.2658h-1.3482v1.2658h-0.47003v-2.8655h0.47003v1.2369h1.3482v-1.2369z"/>
   </g>
   <g aria-label="AMQP GET">
    <path d="m215.81 178.33h-1.1998l-0.20615 0.58547h-0.49064l1.0266-2.8696h0.54424l1.0266 2.8696h-0.49476zm-0.12781-0.36695-0.47002-1.3482-0.47415 1.3482z"/>
    <path d="m219.97 176.05v2.8655h-0.47003v-1.9626l-0.87407 1.9626h-0.32572l-0.8782-1.9626v1.9626h-0.47003v-2.8655h0.50713l1.006 2.247 1.0019-2.247z"/>
    <path d="m222.81 179.44-0.50301-0.54424q-0.18553 0.0536-0.40818 0.0536-0.39993 0-0.73802-0.18553-0.33396-0.18966-0.53186-0.52363-0.19379-0.33808-0.19379-0.75863t0.19379-0.75451q0.1979-0.33397 0.53186-0.5195 0.33809-0.18966 0.73802-0.18966 0.40406 0 0.73802 0.18966 0.33809 0.18553 0.53187 0.5195 0.19378 0.33396 0.19378 0.75451 0 0.39581-0.17316 0.7174-0.16905 0.31747-0.47003 0.51126l0.68854 0.72977zm-1.8925-1.9584q0 0.30923 0.12369 0.54836 0.12781 0.23501 0.35045 0.36695 0.22265 0.12781 0.50713 0.12781 0.28449 0 0.50713-0.12781 0.22265-0.13194 0.34634-0.36695 0.12781-0.23913 0.12781-0.54836t-0.12781-0.54424q-0.12369-0.23501-0.34634-0.36282-0.22264-0.12782-0.50713-0.12782-0.28448 0-0.50713 0.12782-0.22264 0.12781-0.35045 0.36282-0.12369 0.23501-0.12369 0.54424z"/>
    <path d="m225.84 176.91q0 0.21852-0.10308 0.4123-0.10307 0.19378-0.32984 0.31747-0.22677 0.11957-0.58134 0.11957h-0.5195v1.1627h-0.47003v-2.8655h0.98953q0.32984 0 0.5566 0.11544 0.23089 0.11132 0.34221 0.3051 0.11545 0.19379 0.11545 0.43292zm-1.0143 0.48239q0.26799 0 0.39993-0.12781 0.13193-0.12781 0.13193-0.35458 0-0.23089-0.13193-0.3587-0.13194-0.12781-0.39993-0.12781h-0.5195v0.9689z"/>
    <path d="m227.37 177.48q0-0.42055 0.19378-0.75451 0.1979-0.33397 0.53187-0.5195 0.33808-0.18966 0.73801-0.18966 0.45766 0 0.81224 0.22677 0.3587 0.22264 0.5195 0.63494h-0.56486q-0.11132-0.2144-0.30922-0.32159-0.19791-0.11133-0.45766-0.11133-0.28448 0-0.50713 0.12782-0.22264 0.12781-0.35045 0.36282-0.12369 0.23501-0.12369 0.54424t0.12369 0.54836q0.12781 0.23501 0.35045 0.36282 0.22265 0.12782 0.50713 0.12782 0.38344 0 0.62258-0.2144 0.24326-0.21852 0.29273-0.58959h-1.0761v-0.36695h1.5791v0.36695q-0.0453 0.33396-0.23913 0.61433-0.18966 0.28036-0.49889 0.44941-0.3051 0.16492-0.6803 0.16492-0.40405 0-0.73801-0.18554-0.33397-0.18966-0.53187-0.52362-0.19378-0.33396-0.19378-0.75451z"/>
    <path d="m231.18 176.42v0.86996h0.98952v0.36282h-0.98952v0.90294h1.1132v0.36695h-1.5832v-2.8696h1.5832v0.36695z"/>
    <path d="m234.72 176.05v0.36695h-0.76276v2.4985h-0.47002v-2.4985h-0.76688v-0.36695z"/>
   </g>
   <g aria-label="AMQP CONSUME">
    <path d="m210.02 195.84h-1.1998l-0.20615 0.58547h-0.49064l1.0266-2.8696h0.54423l1.0266 2.8696h-0.49476zm-0.12781-0.36695-0.47002-1.3482-0.47415 1.3482z"/>
    <path d="m214.18 193.56v2.8655h-0.47003v-1.9626l-0.87407 1.9626h-0.32572l-0.8782-1.9626v1.9626h-0.47003v-2.8655h0.50713l1.006 2.247 1.0019-2.247z"/>
    <path d="m217.02 196.95-0.50301-0.54424q-0.18553 0.0536-0.40818 0.0536-0.39993 0-0.73802-0.18554-0.33396-0.18965-0.53186-0.52362-0.19379-0.33808-0.19379-0.75863t0.19379-0.75451q0.1979-0.33397 0.53186-0.5195 0.33809-0.18966 0.73802-0.18966 0.40406 0 0.73802 0.18966 0.33809 0.18553 0.53187 0.5195 0.19378 0.33396 0.19378 0.75451 0 0.39581-0.17317 0.7174-0.16904 0.31747-0.47002 0.51126l0.68854 0.72977zm-1.8925-1.9584q0 0.30922 0.12369 0.54836 0.12781 0.23501 0.35045 0.36695 0.22264 0.12781 0.50713 0.12781t0.50713-0.12781q0.22265-0.13194 0.34634-0.36695 0.12781-0.23914 0.12781-0.54836 0-0.30923-0.12781-0.54424-0.12369-0.23501-0.34634-0.36282-0.22264-0.12782-0.50713-0.12782t-0.50713 0.12782q-0.22264 0.12781-0.35045 0.36282-0.12369 0.23501-0.12369 0.54424z"/>
    <path d="m220.05 194.41q0 0.21852-0.10308 0.4123-0.10307 0.19378-0.32984 0.31747-0.22677 0.11957-0.58134 0.11957h-0.5195v1.1627h-0.47003v-2.8655h0.98953q0.32984 0 0.5566 0.11544 0.23089 0.11132 0.34221 0.3051 0.11545 0.19379 0.11545 0.43292zm-1.0143 0.48239q0.26799 0 0.39993-0.12781 0.13193-0.12781 0.13193-0.35458 0-0.23089-0.13193-0.3587-0.13194-0.12782-0.39993-0.12782h-0.5195v0.96891z"/>
    <path d="m221.58 194.99q0-0.42055 0.19378-0.75451 0.1979-0.33397 0.53187-0.5195 0.33808-0.18966 0.73801-0.18966 0.45766 0 0.81224 0.22676 0.3587 0.22265 0.5195 0.63495h-0.56486q-0.11132-0.2144-0.30922-0.3216-0.19791-0.11132-0.45766-0.11132-0.28448 0-0.50713 0.12782-0.22264 0.12781-0.35045 0.36282-0.12369 0.23501-0.12369 0.54424 0 0.30922 0.12369 0.54836 0.12781 0.23501 0.35045 0.36282 0.22265 0.12782 0.50713 0.12782 0.25975 0 0.45766-0.1072 0.1979-0.11132 0.30922-0.32572h0.56486q-0.1608 0.4123-0.5195 0.63494-0.35458 0.22265-0.81224 0.22265-0.40405 0-0.73801-0.18554-0.33397-0.18966-0.53187-0.52362-0.19378-0.33396-0.19378-0.75451z"/>
    <path d="m226.23 196.45q-0.39993 0-0.73802-0.18554-0.33397-0.18965-0.53187-0.52362-0.19378-0.33808-0.19378-0.75863t0.19378-0.75451q0.1979-0.33397 0.53187-0.5195 0.33809-0.18966 0.73802-0.18966 0.40405 0 0.73802 0.18966 0.33808 0.18553 0.53186 0.5195 0.19379 0.33396 0.19379 0.75451t-0.19379 0.75863q-0.19378 0.33397-0.53186 0.52362-0.33397 0.18554-0.73802 0.18554zm0-0.42467q0.28449 0 0.50713-0.12781 0.22264-0.13194 0.34633-0.36695 0.12781-0.23914 0.12781-0.54836 0-0.30923-0.12781-0.54424-0.12369-0.23501-0.34633-0.36282-0.22264-0.12782-0.50713-0.12782t-0.50713 0.12782q-0.22265 0.12781-0.35046 0.36282-0.12369 0.23501-0.12369 0.54424 0 0.30922 0.12369 0.54836 0.12781 0.23501 0.35046 0.36695 0.22264 0.12781 0.50713 0.12781z"/>
    <path d="m230.51 196.43h-0.47003l-1.4142-2.1398v2.1398h-0.47002v-2.8696h0.47002l1.4142 2.1357v-2.1357h0.47003z"/>
    <path d="m232.07 196.45q-0.28861 0-0.5195-0.099-0.23089-0.10308-0.36282-0.28861-0.13194-0.18554-0.13194-0.43292h0.50301q0.0165 0.19378 0.1443 0.31747 0.13194 0.12369 0.36695 0.12369 0.24326 0 0.37932-0.11956 0.13606-0.12369 0.13606-0.31748 0-0.1443-0.0866-0.23501-0.0825-0.0907-0.21027-0.14018-0.12369-0.0495-0.34633-0.1072-0.28037-0.0742-0.45766-0.14843-0.17316-0.0783-0.29685-0.23913-0.12369-0.1608-0.12369-0.42879 0-0.24739 0.12369-0.43292 0.12369-0.18554 0.34633-0.28449 0.22264-0.0989 0.51538-0.0989 0.41642 0 0.68029 0.21027 0.268 0.20615 0.29686 0.56898h-0.5195q-0.0124-0.16905-0.14843-0.28037-0.13193-0.11544-0.3587-0.11544-0.20615 0-0.33396 0.1072-0.12369 0.10307-0.12369 0.30922 0 0.13194 0.0783 0.21852 0.0825 0.0825 0.20615 0.13194 0.12369 0.0495 0.33809 0.1072 0.28449 0.0783 0.46178 0.15667 0.18141 0.0783 0.3051 0.24326 0.12781 0.1608 0.12781 0.43292 0 0.21852-0.11956 0.4123-0.11545 0.19378-0.34221 0.31335-0.22265 0.11544-0.52775 0.11544z"/>
    <path d="m234.09 193.56v1.8182q0 0.32572 0.16904 0.49064 0.17317 0.16492 0.47827 0.16492 0.30923 0 0.47827-0.16492 0.17317-0.16492 0.17317-0.49064v-1.8182h0.47002v1.8182q0 0.35046-0.15255 0.59372t-0.40818 0.36282q-0.25562 0.11957-0.56485 0.11957-0.30922 0-0.56485-0.11957-0.25151-0.11956-0.39993-0.36282-0.14843-0.24326-0.14843-0.59372v-1.8182z"/>
    <path d="m239.48 193.56v2.8655h-0.47003v-1.9626l-0.87408 1.9626h-0.32571l-0.8782-1.9626v1.9626h-0.47003v-2.8655h0.50713l1.006 2.247 1.0019-2.247z"/>
    <path d="m240.57 193.92v0.86996h0.98952v0.36282h-0.98952v0.90294h1.1132v0.36695h-1.5832v-2.8696h1.5832v0.36695z"/>
   </g>
  </g>
  <g transform="matrix(.15327 0 0 .15327 24.275 160.66)" fill="#222d72" style="shape-inside:url(#rect12563-8-2-4-3-9);white-space:pre" aria-label="Service B">
   <path d="m365.39 491.23q-2.6884 0-4.8612-0.92069-2.136-0.92069-3.3881-2.6516-1.2521-1.7309-1.289-4.0879h5.5241q0.11048 1.6204 1.1048 2.5779 1.0312 0.95752 2.7989 0.95752 1.8046 0 2.8357-0.88386 1.0312-0.88387 1.0312-2.357 0-1.1416-0.69972-1.8782-0.69973-0.73655-1.7677-1.1416-1.0312-0.44193-2.8726-0.95752-2.5043-0.73655-4.0879-1.4363-1.5468-0.73655-2.6884-2.1728-1.1048-1.4731-1.1048-3.9037 0-2.2833 1.1416-3.9774 1.1417-1.6941 3.204-2.5779 2.0624-0.92069 4.7139-0.92069 3.9774 0 6.4448 1.9519 2.5043 1.915 2.7621 5.3768h-5.6714q-0.0736-1.4363-1.1416-2.2833-1.0312-0.88386-2.7621-0.88386-1.5099 0-2.4306 0.8102-0.88387 0.77338-0.88387 2.3201 0 1.0312 0.6629 1.7309 0.69973 0.6629 1.6941 1.1048 1.0312 0.4051 2.8726 0.95751 2.5043 0.73656 4.0879 1.4731 1.5836 0.73655 2.7252 2.2096 1.1416 1.4731 1.1416 3.8669 0 2.0624-1.068 3.8301-1.068 1.7677-3.1303 2.8357-2.0624 1.0312-4.8981 1.0312z"/>
   <path d="m397.91 480.29q0 1.0312-0.14731 1.915h-14.915q0.14731 2.2465 1.5099 3.5354 1.3626 1.289 3.3881 1.289 2.8726 0 4.0879-2.4674h5.561q-0.88386 2.9462-3.3881 4.8612-2.5043 1.8782-6.1502 1.8782-2.9462 0-5.3032-1.289-2.3201-1.3258-3.6459-3.7196-1.289-2.3938-1.289-5.5241 0-3.1672 1.289-5.561 1.289-2.3938 3.6091-3.6828 2.3201-1.289 5.34-1.289 2.9094 0 5.1927 1.2521 2.3201 1.2521 3.5723 3.5354 1.289 2.2833 1.289 5.2663zm-5.34-1.2153q-0.0368-2.136-1.4363-3.3513-1.3626-1.2521-3.425-1.2521-1.9519 0-3.2777 1.2521-1.3258 1.2153-1.5836 3.3513z"/>
   <path d="m406.82 474.18q0.99434-1.8414 2.5779-2.8726 1.6204-1.0312 3.6828-1.0312v5.4136h-1.3626q-2.4306 0-3.6828 1.1417-1.2153 1.1416-1.2153 3.9774v10.164h-5.1559v-20.402h5.1559z"/>
   <path d="m425.05 486.22 5.1559-15.652h5.5241l-7.5128 20.402h-6.3344l-7.5128-20.402h5.5241z"/>
   <path d="m441.22 468.14q-1.3626 0-2.2833-0.84704-0.88386-0.88386-0.88386-2.1728 0-1.289 0.88386-2.136 0.92069-0.88386 2.2833-0.88386t2.2465 0.88386q0.92069 0.84704 0.92069 2.136 0 1.289-0.92069 2.1728-0.88386 0.84704-2.2465 0.84704zm2.5411 2.4306v20.402h-5.1559v-20.402z"/>
   <path d="m447.52 480.77q0-3.1672 1.289-5.5241 1.289-2.3938 3.5723-3.6828 2.2833-1.3258 5.2295-1.3258 3.7932 0 6.2607 1.915 2.5043 1.8782 3.3513 5.3032h-5.561q-0.44193-1.3258-1.5099-2.0624-1.0312-0.77338-2.5779-0.77338-2.2097 0-3.4986 1.6204-1.289 1.5836-1.289 4.5298 0 2.9094 1.289 4.5298 1.289 1.5836 3.4986 1.5836 3.1304 0 4.0879-2.7989h5.561q-0.84703 3.3145-3.3513 5.2663-2.5043 1.9519-6.2607 1.9519-2.9462 0-5.2295-1.289-2.2833-1.3258-3.5723-3.6828-1.289-2.3938-1.289-5.561z"/>
   <path d="m489.98 480.29q0 1.0312-0.14731 1.915h-14.915q0.14731 2.2465 1.5099 3.5354 1.3626 1.289 3.3881 1.289 2.8726 0 4.0879-2.4674h5.561q-0.88386 2.9462-3.3881 4.8612-2.5043 1.8782-6.1502 1.8782-2.9462 0-5.3032-1.289-2.3201-1.3258-3.6459-3.7196-1.289-2.3938-1.289-5.5241 0-3.1672 1.289-5.561 1.289-2.3938 3.6091-3.6828 2.3201-1.289 5.34-1.289 2.9094 0 5.1927 1.2521 2.3201 1.2521 3.5723 3.5354 1.289 2.2833 1.289 5.2663zm-5.34-1.2153q-0.0368-2.136-1.4363-3.3513-1.3626-1.2521-3.425-1.2521-1.9519 0-3.2777 1.2521-1.3258 1.2153-1.5836 3.3513z"/>
   <path d="m518.19 477.79q2.1728 0.4051 3.5723 2.1728 1.3994 1.7677 1.3994 4.051 0 2.0624-1.0312 3.6459-0.99434 1.5468-2.9094 2.4306-1.915 0.88387-4.5298 0.88387h-11.085v-25.706h10.606q2.6148 0 4.493 0.84704 1.915 0.84703 2.8726 2.357 0.99434 1.5099 0.99434 3.425 0 2.2465-1.2153 3.7564-1.1785 1.5099-3.1672 2.136zm-9.4279-1.8414h4.7139q1.8414 0 2.8357-0.84704 0.99435-0.84703 0.99435-2.4306t-1.0312-2.4674q-0.99434-0.88386-2.7989-0.88386h-4.7139zm5.1927 10.938q1.8782 0 2.9094-0.88386 1.068-0.92069 1.068-2.6148 0-1.6572-1.1048-2.6148t-2.983-0.95752h-5.0822v7.0709z"/>
  </g>
  <g stroke-width=".10308" aria-label="HTTP POST">
   <path d="m97.558 211.01v2.8655h-0.47002v-1.2658h-1.3482v1.2658h-0.47002v-2.8655h0.47002v1.2369h1.3482v-1.2369z"/>
   <path d="m100.03 211.01v0.36695h-0.76276v2.4985h-0.47002v-2.4985h-0.76688v-0.36695z"/>
   <path d="m102.35 211.01v0.36695h-0.76276v2.4985h-0.47002v-2.4985h-0.76688v-0.36695z"/>
   <path d="m104.83 211.87q0 0.21852-0.10308 0.4123-0.10307 0.19378-0.32984 0.31747-0.22676 0.11957-0.58134 0.11957h-0.5195v1.1627h-0.47003v-2.8655h0.98953q0.32984 0 0.5566 0.11544 0.23089 0.11132 0.34221 0.30511 0.11545 0.19378 0.11545 0.43291zm-1.0143 0.48239q0.26799 0 0.39993-0.12781 0.13193-0.12781 0.13193-0.35458 0-0.23089-0.13193-0.3587-0.13194-0.12781-0.39993-0.12781h-0.5195v0.9689z"/>
   <path d="m108.52 211.87q0 0.21852-0.10308 0.4123t-0.32984 0.31747q-0.22677 0.11957-0.58135 0.11957h-0.51949v1.1627h-0.47003v-2.8655h0.98952q0.32985 0 0.55661 0.11544 0.23089 0.11132 0.34221 0.30511 0.11545 0.19378 0.11545 0.43291zm-1.0143 0.48239q0.268 0 0.39994-0.12781 0.13193-0.12781 0.13193-0.35458 0-0.23089-0.13193-0.3587-0.13194-0.12781-0.39994-0.12781h-0.51949v0.9689z"/>
   <path d="m110.28 213.91q-0.39993 0-0.73801-0.18553-0.33397-0.18966-0.53187-0.52363-0.19378-0.33808-0.19378-0.75863t0.19378-0.75451q0.1979-0.33396 0.53187-0.5195 0.33808-0.18966 0.73801-0.18966 0.40406 0 0.73802 0.18966 0.33809 0.18554 0.53187 0.5195t0.19378 0.75451-0.19378 0.75863q-0.19378 0.33397-0.53187 0.52363-0.33396 0.18553-0.73802 0.18553zm0-0.42467q0.28449 0 0.50713-0.12781 0.22265-0.13194 0.34634-0.36695 0.12781-0.23913 0.12781-0.54836t-0.12781-0.54424q-0.12369-0.23501-0.34634-0.36282-0.22264-0.12782-0.50713-0.12782-0.28448 0-0.50713 0.12782-0.22264 0.12781-0.35045 0.36282-0.12369 0.23501-0.12369 0.54424t0.12369 0.54836q0.12781 0.23501 0.35045 0.36695 0.22265 0.12781 0.50713 0.12781z"/>
   <path d="m113.15 213.91q-0.28861 0-0.5195-0.0989-0.23088-0.10308-0.36282-0.28861-0.13194-0.18554-0.13194-0.43292h0.50301q0.0165 0.19378 0.14431 0.31747 0.13193 0.1237 0.36694 0.1237 0.24326 0 0.37932-0.11957 0.13606-0.12369 0.13606-0.31747 0-0.14431-0.0866-0.23502-0.0825-0.0907-0.21028-0.14018-0.12369-0.0495-0.34633-0.1072-0.28037-0.0742-0.45765-0.14842-0.17317-0.0783-0.29686-0.23914-0.12369-0.1608-0.12369-0.42879 0-0.24738 0.12369-0.43292 0.12369-0.18553 0.34633-0.28449 0.22264-0.099 0.51538-0.099 0.41642 0 0.68029 0.21028 0.268 0.20615 0.29686 0.56897h-0.5195q-0.0124-0.16904-0.14843-0.28036-0.13193-0.11545-0.3587-0.11545-0.20615 0-0.33396 0.1072-0.12369 0.10308-0.12369 0.30923 0 0.13193 0.0783 0.21852 0.0825 0.0825 0.20616 0.13193 0.12369 0.0495 0.33808 0.1072 0.28449 0.0783 0.46178 0.15667 0.18141 0.0783 0.3051 0.24326 0.12782 0.1608 0.12782 0.43292 0 0.21852-0.11957 0.4123-0.11545 0.19378-0.34221 0.31335-0.22264 0.11544-0.52775 0.11544z"/>
   <path d="m116.54 211.01v0.36695h-0.76276v2.4985h-0.47002v-2.4985h-0.76688v-0.36695z"/>
  </g>
 </g>
</svg>
