<?xml version="1.0" encoding="UTF-8"?>
<svg width="347.26" height="168.61" version="1.1" viewBox="0 0 91.879 44.611" xmlns="http://www.w3.org/2000/svg">
 <g transform="translate(-53.61 -104.27)">
  <rect x="53.61" y="104.27" width="91.879" height="44.611" ry="0" fill="#303f9f"/>
  <g fill="#fff" stroke-width=".37288" aria-label="Bunny ">
   <path d="m96.541 126.04q0.87998 0.16406 1.4468 0.87998t0.56677 1.6406q0 0.83524-0.41762 1.4766-0.4027 0.62643-1.1783 0.98439t-1.8345 0.35796h-4.4894v-10.411h4.2955q1.059 0 1.8196 0.34304 0.77558 0.34305 1.1634 0.95456 0.4027 0.61152 0.4027 1.3871 0 0.90981-0.4922 1.5213-0.47728 0.61151-1.2827 0.86507zm-3.8182-0.74575h1.9091q0.74575 0 1.1485-0.34305 0.4027-0.34304 0.4027-0.98439 0-0.64134-0.41762-0.9993-0.4027-0.35796-1.1335-0.35796h-1.9091zm2.103 4.4298q0.76066 0 1.1783-0.35796 0.43254-0.37287 0.43254-1.059 0-0.67118-0.44745-1.059t-1.2081-0.38779h-2.0583v2.8637z"/>
   <path d="m108.03 123.12v8.2629h-2.103v-1.044q-0.4027 0.53694-1.059 0.85015-0.64135 0.2983-1.402 0.2983-0.96948 0-1.7152-0.4027-0.74575-0.41762-1.1783-1.2081-0.41762-0.80541-0.41762-1.9091v-4.8474h2.0881v4.5491q0 0.98439 0.49219 1.5213 0.4922 0.52203 1.3424 0.52203 0.86507 0 1.3573-0.52203 0.49219-0.53694 0.49219-1.5213v-4.5491z"/>
   <path d="m114.66 123q1.4766 0 2.3864 0.93964 0.90982 0.92473 0.90982 2.5952v4.8474h-2.0881v-4.564q0-0.98439-0.4922-1.5064-0.49219-0.53694-1.3424-0.53694-0.86507 0-1.3722 0.53694-0.49219 0.52203-0.49219 1.5064v4.564h-2.0881v-8.2629h2.0881v1.0291q0.41762-0.53694 1.059-0.83524 0.65626-0.31321 1.4318-0.31321z"/>
   <path d="m124.52 123q1.4766 0 2.3864 0.93964 0.90981 0.92473 0.90981 2.5952v4.8474h-2.0881v-4.564q0-0.98439-0.49219-1.5064-0.4922-0.53694-1.3424-0.53694-0.86507 0-1.3722 0.53694-0.4922 0.52203-0.4922 1.5064v4.564h-2.0881v-8.2629h2.0881v1.0291q0.41762-0.53694 1.059-0.83524 0.65626-0.31321 1.4318-0.31321z"/>
   <path d="m131.19 123.12 2.1328 5.7721 2.1627-5.7721h2.2223l-5.1158 12.171h-2.2223l1.7898-4.1165-3.3111-8.0541z"/>
  </g>
  <g fill="#a2b4d9" stroke-width=".32572" aria-label="REST Proxy ">
   <path d="m93.401 137.63-1.0701-1.89h-0.45862v1.89h-0.97282v-4.8502h1.8206q0.56284 0 0.95892 0.20151 0.39608 0.19456 0.59064 0.53505 0.20151 0.33354 0.20151 0.75046 0 0.47946-0.27795 0.86858-0.27795 0.38218-0.8269 0.52811l1.1604 1.9665zm-1.5287-2.6127h0.813q0.39608 0 0.59064-0.19457 0.19456-0.19456 0.19456-0.53505 0-0.34048-0.19456-0.5281-0.19456-0.19456-0.59064-0.19456h-0.813z"/>
   <path d="m96.327 133.54v1.2577h1.6329v0.75046h-1.6329v1.3133h1.8414v0.77131h-2.8142v-4.8571h2.8142v0.76435z"/>
   <path d="m100.73 137.68q-0.50725 0-0.91723-0.17372-0.40302-0.17372-0.63928-0.5003-0.23626-0.32659-0.2432-0.77131h1.0423q0.02085 0.30574 0.20846 0.48641 0.19457 0.18066 0.52811 0.18066 0.34048 0 0.53505-0.16676 0.19456-0.16677 0.19456-0.44472 0-0.21541-0.13203-0.35438-0.13202-0.13898-0.33353-0.21541-0.19457-0.0834-0.542-0.18067-0.47251-0.13897-0.77131-0.271-0.29184-0.13897-0.50726-0.40997-0.20846-0.27795-0.20846-0.73657 0-0.43081 0.21541-0.75045 0.21541-0.31965 0.60454-0.48641 0.38913-0.17372 0.88944-0.17372 0.75046 0 1.216 0.36828 0.47251 0.36133 0.52115 1.0145h-1.0701q-0.0139-0.271-0.21541-0.43082-0.19456-0.16677-0.52115-0.16677-0.2849 0-0.45861 0.15287-0.16677 0.14593-0.16677 0.43777 0 0.19456 0.12507 0.32659 0.13203 0.12508 0.31964 0.20846 0.19457 0.0764 0.542 0.18067 0.47251 0.13897 0.77131 0.27795 0.29879 0.13897 0.5142 0.41692t0.21541 0.72961q0 0.38913-0.20151 0.72267-0.20151 0.33353-0.59064 0.53505-0.38913 0.19456-0.92418 0.19456z"/>
   <path d="m106.58 132.78v0.76435h-1.2925v4.0858h-0.97281v-4.0858h-1.2925v-0.76435z"/>
   <path d="m112.69 134.28q0 0.38913-0.18761 0.72962-0.18067 0.34048-0.57674 0.54895-0.38913 0.20846-0.98672 0.20846h-0.813v1.8622h-0.97282v-4.8502h1.7858q0.56285 0 0.95892 0.19456 0.39608 0.19456 0.59064 0.53505 0.20151 0.34049 0.20151 0.7713zm-1.7928 0.72267q0.39607 0 0.59064-0.19456 0.20151-0.19457 0.20151-0.52811 0-0.34743-0.19456-0.53505-0.19457-0.19456-0.59759-0.19456h-0.77131v1.4523z"/>
   <path d="m114.35 134.46q0.18762-0.34743 0.48641-0.542 0.30574-0.19456 0.69487-0.19456v1.0215h-0.2571q-0.45861 0-0.69487 0.21541-0.22931 0.21541-0.22931 0.75046v1.9178h-0.97282v-3.8496h0.97282z"/>
   <path d="m117.9 137.69q-0.55589 0-1.0006-0.24321-0.44471-0.25015-0.70182-0.70182-0.25015-0.45166-0.25015-1.0423t0.2571-1.0423q0.26405-0.45166 0.71572-0.69487 0.45166-0.25015 1.0076-0.25015t1.0076 0.25015q0.45167 0.24321 0.70877 0.69487 0.26405 0.45167 0.26405 1.0423t-0.271 1.0423q-0.26405 0.45167-0.72267 0.70182-0.45166 0.24321-1.0145 0.24321zm0-0.83385q0.26406 0 0.49336-0.13202 0.23626-0.13203 0.37523-0.38913 0.13898-0.26405 0.13898-0.63233t-0.13898-0.62538q-0.13897-0.26406-0.36828-0.39608-0.22236-0.13203-0.48641-0.13203-0.40997 0-0.69487 0.30575-0.28489 0.29879-0.28489 0.84774t0.27794 0.85469q0.27795 0.29879 0.68792 0.29879z"/>
   <path d="m122.75 137.63-0.79216-1.1952-0.70181 1.1952h-1.0423l1.2577-1.9317-1.2716-1.9178h1.0979l0.7852 1.1882 0.70877-1.1882h1.0423l-1.2647 1.9178 1.2786 1.9317z"/>
   <path d="m125.02 133.78 0.99367 2.6892 1.0076-2.6892h1.0354l-2.3834 5.6701h-1.0354l0.83384-1.9178-1.5426-3.7523z"/>
  </g>
  <path d="m71.736 113.33 0.13 1.8318s0.18494 2.5986 0.60982 5.7105c0.42487 3.112 1.0518 6.7049 2.106 8.9464 1.0709 2.2768 3.4031 4.5594 5.4742 6.3676 2.0711 1.8082 3.9 3.1011 3.9 3.1011l1.0967 0.77526 0.23164-1.3213s0.38943-2.1963 0.38291-5.0109c-0.0065-2.8146-0.37348-6.2885-2.0516-8.97-3.2248-5.1529-10.398-10.343-10.398-10.343zm2.0445 3.7487c1.9109 1.5013 6.0899 4.9019 8.3933 8.5824 1.376 2.1987 1.7855 5.4172 1.7916 8.0742 0.0042 1.8038-0.13428 2.4038-0.24109 3.198-0.66337-0.49242-1.1958-0.84542-2.5504-2.028-1.9999-1.746-4.2163-4.0299-5.0534-5.8098-0.85381-1.8154-1.5428-5.401-1.9595-8.4523-0.26508-1.9416-0.29227-2.5566-0.38054-3.5644z" color="#000000" fill="#a2b4d9" stroke-width="1.2102" style="-inkscape-stroke:none"/>
  <path d="m61.951 108.79 0.23636 2.3849s0.97852 10.572 4.4082 17.328c1.7788 3.5037 5.2263 6.3458 8.2136 8.3838 2.9873 2.038 5.5664 3.2571 5.5664 3.2571l1.6144 0.76346-0.14418-1.7774s-0.2124-2.6713-0.82254-5.9422c-0.61014-3.2709-1.5718-7.1443-3.2973-9.7736-1.7016-2.5929-5.1308-5.7905-8.1782-8.4453-3.0474-2.6548-5.7011-4.7107-5.7011-4.7107zm2.6993 4.81c1.0249 0.81884 1.6483 1.2776 3.5407 2.9262 2.9978 2.6115 6.3934 5.8656 7.8071 8.0198 1.3898 2.1178 2.4057 5.8622 2.9947 9.0196 0.37897 2.0316 0.40375 2.6676 0.51291 3.6849-0.93204-0.48477-1.6306-0.77231-3.5336-2.0705-2.8476-1.9427-6.0504-4.6862-7.5353-7.6109-2.4207-4.768-3.378-10.941-3.7865-13.969z" color="#000000" fill="#fff" stroke-width="1.2102" style="-inkscape-stroke:none"/>
  <rect x="57.594" y="107.76" width="34.539" height="34.539" opacity="0" stroke-width="0"/>
 </g>
</svg>
